<?xml version="1.0" encoding="utf-8"?>
<!-- Generator: Adobe Illustrator 24.3.0, SVG Export Plug-In . SVG Version: 6.00 Build 0)  -->
<svg version="1.1" xmlns="http://www.w3.org/2000/svg" xmlns:xlink="http://www.w3.org/1999/xlink" x="0px" y="0px"
	 viewBox="0 0 650.18 359.39" style="enable-background:new 0 0 650.18 359.39;" xml:space="preserve">
<style type="text/css">
	.st0{fill:#FFFFFF;}
</style>
<g id="Layer_1">
	<g>
		<path class="st0" d="M650.07,351.01c0.35-0.83-0.15-2.53-1.37-2.03l-0.5,3.06L650.07,351.01z"/>
		<path class="st0" d="M640.83,346.6c-1.3,1.62-2.71,4.35-1.41,6.95c1.13-3.03,1.64-1.89,2.79-5.47c1.22-0.5,2.33,0.67,2.26,1.78
			c0.35-0.81,2.06,0.4,2.49-1.54c-1.96-2.08-4.04-1.91-5.98,0.25C640.43,347.99,640.79,347.16,640.83,346.6z"/>
		<path class="st0" d="M516.98,347.35l0.79,0.38C517.56,347.53,517.29,347.41,516.98,347.35z"/>
		<path class="st0" d="M440.57,341.37c0.59-0.02,0.85-0.3,0.91-0.57C440.92,340.95,440.46,341.1,440.57,341.37z"/>
		<path class="st0" d="M427.81,336.98c0.27,0.12,0.5,0.18,0.75,0.27C428.29,336.95,428.01,336.78,427.81,336.98z"/>
		<path class="st0" d="M516.98,347.35l-2.02-1C514.79,347.32,515.99,347.11,516.98,347.35z"/>
		<path class="st0" d="M624.53,355.69c0.42-0.18,0.75-0.5,1.04-0.89c-0.34,0.16-0.67,0.31-1.02,0.42
			C624.55,355.37,624.54,355.52,624.53,355.69z"/>
		<path class="st0" d="M550.72,345.27l0.62-0.01c0.18-0.34,0.35-0.75,0.5-1.21L550.72,345.27z"/>
		<path class="st0" d="M576.52,344.28c-0.59-0.09-0.7,2.44-0.88,3.55c0.29-1.05,0.71-1.55,1.21-1.77
			C576.85,345.58,576.75,345.01,576.52,344.28z"/>
		<path class="st0" d="M617.72,346.05l0.69-0.42C618.23,345.76,617.92,345.89,617.72,346.05z"/>
		<path class="st0" d="M532.23,344.68c-0.04-0.38-0.13-0.71-0.22-0.91C532.01,344.09,532.09,344.39,532.23,344.68z"/>
		<path class="st0" d="M145.03,87.19c-0.06-0.17-0.13-0.26-0.19-0.41C144.82,87.07,144.86,87.25,145.03,87.19z"/>
		<path class="st0" d="M113.71,91.32l0.26-0.35c-0.25-0.41-0.49-0.82-0.77-1.19L113.71,91.32z"/>
		<path class="st0" d="M404.29,331.51c0.04,0.03,0.06,0.03,0.1,0.06C405.05,331.34,404.69,331.36,404.29,331.51z"/>
		<path class="st0" d="M340.87,210.04c-3.2,0.88-0.37-4.94-4.43-3.13C337.46,207.15,338.03,211.84,340.87,210.04z"/>
		<path class="st0" d="M623.82,355.42c-0.35,0.06-0.71,0.12-1.07,0.13C623.24,355.59,623.57,355.55,623.82,355.42z"/>
		<path class="st0" d="M336.44,206.9l-0.02-0.01l-0.4,0.2C336.2,207.01,336.3,206.97,336.44,206.9z"/>
		<path class="st0" d="M350,326.93c0.02,0.46,0.17,0.82,0.32,1.18C350.35,327.85,350.28,327.52,350,326.93z"/>
		<path class="st0" d="M389.77,335.19l-0.98-0.44C389.17,335.02,389.49,335.13,389.77,335.19z"/>
		<path class="st0" d="M330.62,324.89c-0.38-0.36-0.35-0.77-1.09-0.76c0,0.14,0.01,0.25,0.04,0.37
			C329.94,324.29,330.26,324.32,330.62,324.89z"/>
		<path class="st0" d="M315.99,313.58c-0.1,0.19-0.14,0.39-0.22,0.58c0.15,0.12,0.29,0.28,0.45,0.39
			C316.13,314.24,316.07,313.9,315.99,313.58z"/>
		<path class="st0" d="M206.31,70.22c-0.54-0.67-0.91-1.42-1.22-2.17C205.6,69.81,202.53,70.73,206.31,70.22z"/>
		<path class="st0" d="M624.37,354.27c-0.07,0.65-0.23,0.98-0.56,1.15c0.25-0.05,0.5-0.13,0.73-0.21
			C624.58,354.83,624.55,354.48,624.37,354.27z"/>
		<path class="st0" d="M321.28,342.55l-3.69-2.32C318.54,341,319.89,341.85,321.28,342.55z"/>
		<path class="st0" d="M357.27,89.24l-0.82-0.06C356.69,89.36,356.96,89.41,357.27,89.24z"/>
		<path class="st0" d="M306.53,332.69c-0.01-1.22-0.27-2.17-0.67-3.01c-0.28,0.02-0.53-0.04-0.83,0.07
			C305.47,330.76,306.01,331.7,306.53,332.69z"/>
		<path class="st0" d="M205.08,68.02c0.01,0.01,0.01,0.03,0.01,0.03S205.09,68.03,205.08,68.02z"/>
		<path class="st0" d="M184,77.24c3.09-0.58,0.83-3.5,1.14-5.52c3.64-1.59,2.2,2.11,3.78,3.56c2.18-1.26,3.52-4.58,5.32-4.75
			c0.21,0.52,0.59,0.68,0.28,1.41c1.07-1.47,2.96-1.74,4.88-2.1c1.93-0.36,3.88-0.85,5.21-2.61c0.25,0.27,0.39,0.54,0.48,0.79
			c-0.65-1.61-0.91-3.29-0.93-4.5c1.48-0.19,2.56-2.35,3.32-0.23c-0.92,0.02-0.91,0.9-1.27,1.61l1.46-1.08
			c1.68,2.98-2.02,1.27-1.79,3.57c2.88-1.27,6.2-4.23,8.61-3.45c0.35,1.51-0.99,1.85-2,2.13c-1.01,0.29-1.69,0.53-0.05,1.75
			l-3.64-0.84c3.12,4.55-2.17-0.14,0.75,4.77c2.33,0.22,3.58-0.27,4.85-0.73c1.27-0.47,2.54-0.93,4.88-0.63
			c0.96-1.76-0.48-2.49,0.48-4.25c3.26-1.72,4.69,0.22,5.83,1.95c1.16,1.76,2.05,3.39,4.44,1.28c1.21-2.07,1.66-5.93,5.2-3.92
			l-1.16,3.47c4.55,0.32,2.57-5.03,7.38-2.68c-0.86,1.33-3.6,1.14-2.91,1.55c3.09,2.72,2.2-1.95,4.6-1.93l0.47,3.07
			c4.85-0.46,10.3-2.51,15.77-2.89c-0.34,0.9-1.3,1.82-0.06,2.8c6.91-1.3,14.56,1.05,20.88,3.37l2.69-2.42
			c0.58,0.08,0.97,1.28,0.3,1.74c2.43,1.21,0.28-1.66,1.59-2.59c1.47-0.06,1.76,1.68,0.78,2.39c2.32-0.88,5.62-1.78,8.89-1.95
			c3.26-0.17,6.5,0.31,8.59,2.1l-1.02,0.64c3.4,1.62,4.96-4.75,7.89-1.68l-0.72,0.34c3.82,1.24,7.94,1.81,11.76,2.71
			c1.89,0.5,3.71,1.07,5.35,1.84c1.63,0.79,3.05,1.87,4.19,3.22c1.08-1.66,2.84-0.75,4.5,0.09c1.68,0.81,3.32,1.42,4.45-1.01
			c1.7,1.95,2.09,3.14,2.77,4.22c0.33,0.55,0.72,1.09,1.35,1.74c0.62,0.65,1.5,1.36,2.71,2.4c1.39,0.87,3.54-2.07,5.67-1.75
			l-1.11,2.54c1.25-0.54,2.48-0.97,3.74-1.44l-0.13,3.63l2.02,0.2c-0.6-0.48-0.89-1.83-0.43-2.49c1.63,0.1,3.08,1.34,3.95,2.8
			c0.89,1.43,1.26,2.96,0.94,3.59c1.19,0.22,2.45,0.44,3.58,0.68c1.13,0.23,2.24,0.47,3.3,0.73c-0.75,0.84-1.79,0.59-2.87,0.75
			c2.16-0.3,1.84,0.41,1.51,1.09c-0.34,0.69-0.73,1.36,1.09,1.1c0.1-0.72,1.15-1.2,1.55-1.6c0.03,1.09,0.58,2.07,1.21,2.88
			c0.64,0.81,1.4,1.45,2.15,1.94c-0.59,0.27-1.17,0.55-1.74,0.85c0.29,0.59,0.57,1.11,0.88,1.64c0.18,0.25,0.29,0.57,0.47,0.87
			c0.2,0.28,0.33,0.63,0.49,0.97c0.63,1.36,1.11,3.19,0.91,5.29c0.53-0.71,1.57-0.96,2.55-0.87c0.99,0.09,1.87,0.58,1.95,1.33
			c-0.99,0.11-1.98,0.2-2.97,0.27c0.87,0.53,1.17,0.22,1.52,0c0.35-0.2,0.74-0.33,1.76,0.77c-0.64,1.89-3.49,0.69-4.28-0.36
			c0.21,0.73,0.49,1.46,0.65,2.25c-0.89-0.05-1.22-0.64-2.3-0.96c0.8,0.58-0.09,1.33-0.88,2.11c-0.4,0.4-0.76,0.8-0.85,1.24
			c-0.11,0.45,0.04,0.94,0.69,1.5l-0.87-0.15c-0.79,2.31-1.26,4.14-1.78,5.9c-0.49,1.76-1.01,3.44-2.02,5.48
			c2.19,1.28,0.84,2.59,1.84,4.9c-2.57,2.76-6.23,5.25-8.42,9.08c-0.57,3.3,1.34,1.9,1.87,3.89c-2.08-1.03-4.22,2.83-4.41,0
			c-1.26,2.34-2.13,3.82-2.89,5.57c-0.78,1.74-1.47,3.74-2.62,7.08c1.2-0.09,2-0.55,2.42,0.24c-0.38,1.24-2.38,1.8-3.2,1.03
			l-0.02-0.4c-1.38,8.29-15.55,10.86-15.05,18.69l0-0.42l-1.53,6.73c-1.98,2.24-0.45-2.44-2.86-1.42c-0.35,3.96-1.99,6.16-3.65,8.21
			c-1.66,2.04-3.43,3.83-3.87,6.98c-4.04,0.12-6.12,3.58-7.89,7.46c-1.75,3.93-3.37,8.06-6.68,9.84l1.58,0.44
			c0.64,2.16-1.71,1.29-2.59,2.18c1.18,0.42,2.09-0.88,2.39,0.41c-0.57,1.61-1.24,3.19-1.97,4.74c-0.68,1.59-1.43,3.16-2.23,4.71
			c-0.8,1.55-1.69,3.08-2.58,4.62c-0.83,1.58-1.71,3.14-2.62,4.71c-0.89,1.57-1.86,3.13-2.75,4.72c-0.85,1.63-1.71,3.26-2.56,4.89
			c-0.84,1.64-1.73,3.27-2.47,4.96c-0.71,1.7-1.4,3.42-2.03,5.14c-1.74,5.12,7.17,4.75,2.24,10.4l-2.57-2.43
			c0.38,2.82,0.32,5.53,0.03,8.21c-0.21,2.72-0.56,5.47-0.83,8.25c-0.53,5.54-0.68,11.45,1.57,16.93c-0.77-0.58-1.65-0.5-1.77-1.62
			c-0.95,1.32-0.69,3.65,0.17,5.56c0.84,1.92,2.19,3.35,3.05,3.14c0.29,1.83-1.43,0.82-1.99,2.19c-0.24,1.44,0.92,2.85,2.05,4
			c1.1,1.18,2.02,2.18,1.31,3.26c-0.23,0.37-0.92-0.39-1.26-0.78c0.41,0.3,0.78,0.91,1.15,1.62c0.42,0.7,0.87,1.49,1.3,2.17
			c0.87,1.36,1.68,2.21,2.36,0.87c0.16,0.57,0.32,1.13,0.59,1.63c0.27,0.49,0.58,0.96,0.91,1.41c0.65,0.89,1.38,1.7,2.08,2.47
			c1.5,1.47,2.95,2.75,3.66,4.62c1.85-0.17,3,1.34,4.16,2.65c1.2,1.21,2.42,2.14,3.85,0.77c-1.34,1.53-0.26,3.44,1.71,4.69
			c0.98,0.62,2.12,1.24,3.25,1.47c1.13,0.27,2.2,0.36,3.01,0.24c-1.36,0.69,1.55,2.22-0.13,3.28c2.9,1.21,5.8,1.6,6.04-0.58
			c0.84,1.6,2.04,2.41,3.33,2.82c1.29,0.39,2.65,0.3,3.92,0.26c1.27-0.03,2.43-0.11,3.37,0.24c0.94,0.36,1.65,1.18,2.04,2.88
			c4.42-0.16,8.53-0.34,12.4-0.6c1.92-0.11,3.81-0.21,5.69-0.32c1.83-0.1,3.57-0.19,5.34-0.24c-0.34,2-2.27,1.9-4.12,1.82
			c-1.86-0.08-3.79-0.17-3.88,1.97c0.89-0.1,1.74-0.24,2.55-0.4c0.8-0.16,1.52-0.36,2.25-0.55c1.44-0.39,2.79-0.81,4.13-1.15
			c2.68-0.67,5.32-1.02,8.52-0.18c1.63,0.74-1.14,1.65-1.79,2.28c6.73-0.94,12.65,1.7,18.72,0.12c-0.05,0.37-0.73,0.72-1.35,0.97
			c1.17-0.01,2.62,0.87,2.67-0.98l-1.17,0.38c-1.56-2.86,5.14-5.09,5.48-6.48c-2.49,5.07,5.63,1.89,1.86,8.23
			c0.79-0.27,1.83-1.05,1.78-2.29c1.09,0.47,1.38,1.22,0.09,2.5c4.23-0.59,2.95-2.69,6.69-2.28c-0.1,0.89-0.89,1.16-1.38,2.17
			c2.06-1.55,4.13-3.1,7.22-2.03c-0.24,0.52,0.06,1.25-0.88,1.15c5.46,0.26,9.68-3.77,15.48-1.55c-2.1,3.71,1.91,1.46,1.93,4.83
			l3.3-0.71l-1.15-1.74c2.81,0.3,5.5-1.94,7.82-0.65l-2.2,1.21l5.32-0.2l-2.88-1.51c2.98-1.49,0.05-4.26,3.7-3.02
			c-0.79,0.28,2.8,0.27,4.11,2.36c0,0-0.01,0-0.01,0.01c1.47-0.96,2.98-1.95,5-0.98c0.46,1.11-0.72,3.67-0.42,4.41
			c1.58-2.7,6.65-0.31,8.6-3.17c-0.63,0.66-0.78,2.42-0.62,2.79l1.31-2.2c1.25,0.82,1.42,1.19,1.11,2.57
			c3.89,0.7-0.95-4.34,3.57-2.18c-0.38,0.16-0.23,0.51-1.01,0.8c4.61,1.31,9.12-0.88,13.34,0.51c1.07,3.45-3.8,0.61-2.52,3.54
			c3.12-0.12,6.39-0.94,9.62-1.59c3.23-0.65,6.42-1.2,9.4-0.66l-1.1-0.42c1.05-4.73,4.36,2.56,7.5,0.45
			c-0.76,0.32-1.08,2.6-0.86,2.08c4.08,0.98,8.47-0.85,14.74-2.17l-0.81,1.2c2.39,1.17,6.37,0.82,8.98,1.45
			c0.8-1.21,2.3-1,1.42-2.79c3.97,3.54,7.86,2.65,11.61,1.62c1.87-0.52,3.72-1.07,5.54-1.13c1.82-0.09,3.62,0.32,5.42,1.76
			c-0.86,0.02-2.04,1.09-1.36,1.09l6.11-1.17c-0.5-2.08-0.81-1.25-2.1-2.86c0.76-1.24,2.47-2.2,3.98-2.21
			c-2.72,1.4,0.05,3.34,1.26,4.49c-0.21-0.64,0.19-1.34,0.08-1.99c3.23,3.68,0.48-4.18,4.85-1.73l-0.21,1.1
			c1.62-0.6,3.08-2.09,4.84-1.82c0.78,2.39-1.7,1.17-1.78,3.15c2.47-0.2,4.75-4.69,7.04-2.35c-1.03,0.7-2.53,0.75-3.56,1.44
			c2.5,2.76,2.77,2.03,4.59,2.43l-0.18-0.06l4.23,1.17l-1.09-0.74c2.87-6.32,6.26-1.36,10.23-5.67c-3.86,4.08-0.57,2.28-0.75,5.02
			c1.1,0.7,2.76,1.47,2.33,2.26c1.86-2.29,3.39,1.57,6-1.78c0.17,0.87,2.11-0.02,1.8,2.2c2.53-0.82-0.7-1.49-0.54-2.6
			c0.95-0.8,2.01-0.99,3.16-0.92c1.15,0.05,2.39,0.38,3.68,0.68c2.58,0.58,5.4,1.01,8.08-1.25c4.76-2.05,5.42-5.02,9.78-6.95
			c1.65,1.25-0.96,3.31-0.96,3.31c2.57,1.05,4.41,0.63,6.63-0.6c-0.39,0.81,0.15,1.41,0.96,2.32c1.84-0.41,0.92-3.3,3.51-2.26
			c-0.32,1.02-0.7,2.62-1.5,3.69c2.12-1.02,4.12-2.85,6.3-3.88c0.77,1.46-1.11,2.46-1.81,3.52c2.49-0.91,6.47-2.18,6.97-4.66
			l-1.73-0.65c0.91-0.23,0.72,2,0.09,2.53c-1.97,2.16-3.25-0.44-3.47-1.3l1.55-0.76c-2.22-4.86-6.37,1.5-9.67,1.53l0.97-3.86
			l-3.02,3.42c-0.8-0.9-1.48-2.93,0.06-3.65c-2.49-1.61-1.93,1.53-4.11-0.33c-0.25-0.3-0.17-0.49,0.02-0.66l-2.16,1.33
			c0.37-0.83-0.61-2.6,0.82-2.19c-4.23-1.72-6.31,3.35-8.07,0.65l0.32-0.25c-5.54,1.67-0.32,2.78-4.33,6.31l-3.33-6.55l-0.37,2.78
			c-0.59-0.06-1.75-0.18-1.61-1.29c-2.04,2.03,0.45,1.17-0.69,3.03c-2.96-2.25-7.69,1.62-8.56-2.71c-0.9,2.13,2.77,1.48-0.15,3.07
			c-1.1-4.66-3.43,0.98-6.1-1.06c0.68-2.47,3.16-1.3,0.5-3.34c-1.36,4.18-5.02-0.66-7.13,0.24c0.02,3.28-4.65,1.49-8.24,2.68
			c0.2-1.11-6.87-1.61-10.25-2.71l0.09-0.55c-0.6,3.31-4.09,2.71-6.62,3.41c0.08-1.98,0.53-2.76,1.89-3.66l-2.38,0.03
			c-0.55,1.06-1.29,1.63-2.83,2.01l0.58-2.47c-3.15,0.14-6.37,2.99-10.44,1.29c-0.25,2.3,3.23,6.46-1.12,7.94
			c-0.15-1.25-0.3-3.38,0.84-3.88c-0.37,0.16-1.33,1.02-2.07,0.48l1.74-2.07c-1.85-0.94-0.98,1.74-2.47,1.53
			c0.04-1.78-1.09-1.28-0.86-2.69c0.38-0.17,1.29,0.75,1.86,0.06c-1.67-0.34-3.69-1.42-4.34-2.77c0.13,1.01-0.03,2.39-1.26,2.61
			c-3.17,0.09-1.06-2.15-2.89-3.09c-0.79,1.23-2.78-0.08-2.88,2.58c-0.93-0.03-1.07-1.27-1.42-1.99c-1.66,1.16-7.66,0.12-5.88,3
			l0.42,0.2c-0.08,0.05-0.17,0.05-0.27,0.11c0.01,0,0,0,0.01,0l-0.01,0c-5.46,2.46-11.14-1.79-16.51-0.9l0.04-0.89
			c-3.23,0.87-7.11,0.28-9.48,2.09c-0.94-0.05-2.15-1.72-1.69-2.76c-2.47,0.55-2.8,1.57-6.23-0.12c2.53-1.4-0.77-1.42,2.57-0.99
			c-3.12-0.95-3.75-2.42-7.28-0.19c1.28-2.2-2.21-3-3.75-2.41l2.12,1.76c-1.71,0.23-3.17-0.06-4.66-0.34l0.99-2.94
			c-6.2-3.98-12.06,5.4-16.55-1.01c-1.86,1.97,3.4,1.72,1.7,4.05c-2.95-0.62-5.72-5.12-6.65-5.2c-3.93-1.95-4.13,4.06-8.3,2.59
			c0.46,1.11,0.75,3.99-2.52,4.73c-2.95-0.64-3.29-4.76-1.34-5.46c0.72-0.03,1.04,0.34,0.98,0.69c0.99-0.31,2.29-0.66,1.21-1.91
			l-0.47,1.03c-1.39-1.21-5.48-1.43-4.37-3.09c-2.33,0.83-1.11,1.67,0.51,2.35c-3.68-1.85-5.95-0.53-9.78-1.93
			c0.57,0.64,1.04,1.95,0.42,1.88c-5.64-1.84-2.71,1.79-6.66,1.9c-2.07-1.82,1.15-3.8-2.9-2.8c-2.29-1.32-0.24-2.87,0.79-3.65
			c-3.76,1.73-6.55-1.96-8.55-2.54l1.96-0.67c-1.17,0.4-2.09,0.29-3.03,0.2l0.87,2.23c-1.07-0.48-2-0.58-1.9-1.46
			c-1.27,1.28,0.53,3.62-1.92,5.3c-1.37-1.23-4.61,0.72-4.84-2.15c4.54,1.41-0.23-2.88,3.73-2.95c-0.79,0.26-1.71,0.16-2.78-0.32
			c-0.13-0.33,0.21-0.57,0.53-0.7c-4.18-2.96-2.35,2.99-6.94,2.47c0.74-1.53-0.76-3.12-1.54-2.86c1.85,0.22,0.62,2.74-1.21,3.78
			c-2.82-1.54-3.3,0.59-4.83,0.28l1.7,0.76c-0.76,1.53-2.21,1.17-4.32,1.45c-0.05-1.26,1.96-0.66,1.28-1.28
			c-2.58,2.56-4.86-3.43-8.24-1.88c-1.36-1.23,0.17-3-1.04-3.86c-3.79,1.67-3.63-2.59-7.56-1.3c0.85,2.25,1.1,1.75-1.77,3.55
			l6.32-0.84l-4.29,2.68c1.86,0.23,4.07-0.92,5.15-0.43c-2.07,1.54-1.82,1.03-1.12,2.9c-2.2-3.48-5.25,1.32-7.96-1.16l0.66-5.27
			c-2.08-1.42-4.12-0.95-6.34-0.38c-1.13,0.29-2.23,0.6-3.41,0.71c-1.19,0.12-2.44,0.03-3.75-0.5l1.63,1.16
			c-1.01,1.97-3.45-0.16-5.33,0.37c0.45-1.73-0.54-2.55-1.08-3.76c-0.18,1.35-3.79-0.86-5.03,2.51c-0.64-0.91-1.22-1.89-1.8-2.83
			c-1.97-0.95-3.41-0.09-4.96,0.82c-1.55,0.94-3.13,1.81-5.03,0.8c1.84-1.39,0.55-3.19,3.53-3.6c-1.24-0.46-2.24-1.16-2.7-0.02
			c-0.19-0.63-1.21-0.45-2.32-0.35c-1.1,0.1-2.29,0.12-2.43-0.95c-0.83,0.45-1.84,2.02-3.15,1.18c0.02-0.39,0.42-0.77,0.42-0.77
			c-0.2,0.38-0.9,0.39-1.48,0.53c-0.58,0.15-1.11,0.49-1.01,1.71c-0.24-1.79-0.96-2.99-1.91-3.97c-0.45-0.52-0.96-0.98-1.51-1.4
			c-0.54-0.43-1.17-0.78-1.69-1.24c-2.22-1.64-4.33-3.61-3.47-6.39c-0.5-0.48-1.03-0.98-1.57-1.49c-0.26-0.27-0.56-0.51-0.8-0.81
			l-0.69-0.9c-0.46-0.6-0.91-1.21-1.33-1.8c-0.41-0.6-0.67-1.26-0.96-1.83c0.55-0.05,0.82-0.33,0.83,0.18
			c0.12-1.93-1.29-1.93-2.69-2.13c-1.36-0.18-2.81-0.54-2.47-2.91c1.15-1.42,1.66-0.92,1.96-0.33c0.33,0.59,0.47,1.32,0.82,0.55
			c2.74-1.04,2.27-2.05,1.5-3.39c-0.79-1.3-1.8-3.04-0.24-4.55l0.41,0.61c0.88-1.11,0.24-2.28-0.57-3.71
			c-0.79-1.42-1.76-3.11-1.47-4.91c0,0,0.51,0.19,0.88,0.05c-2.91-2.53-3.48-7.56-3.66-11.32c2.04,1.47,0.95,1.81,3.33,1.47
			c-0.05-1.65-3.79-0.06-3.83-3.43c1.44-0.86,2.95-2.99,5.43-2.8l-0.42,3c3.44-0.95,0.61-3.84,1.45-5.32l1.33,0.49
			c0.07-1.15,0-2.05-0.19-2.85c-0.19-0.8-0.51-1.49-0.79-2.19c-0.57-1.4-1.04-2.86-0.27-5.28l-1.16,0.21
			c-1.34-1.84-0.7-2.28,0.08-2.65c0.77-0.38,1.63-0.71,0.84-2.43l3.64,0.31c-0.12-0.99-0.43-2.77-0.65-4.75
			c-0.13-1-0.16-2.02-0.13-3c0.02-0.99,0.1-1.94,0.26-2.78c0.87,1.37,1.26,3.06,1.51,4.73c0.28,1.69,0.52,3.4,0.88,4.75
			c0.3-0.84,0.7-2.29,0.89-3.72c0.26-1.41,0.28-2.8-0.36-3.56c0.05,0.8,0.52,1.96-0.26,2.43c-1.78-3.02-1.94-6.33-0.5-9.7
			c3.02,1.67,4.42-0.29,5.8-2.68c0.69-1.2,1.38-2.5,2.27-3.51c0.91-1,2.06-1.67,3.54-1.64c0.37-3.37,1.98-6.09,4.15-8.66
			c2.13-2.59,4.46-5.16,6.3-8.43c-5.97-0.53,1.02-1.94-3.9-4.44c0.63-1.69,1.06-2.22,1.44-2.16c1.85-0.94,3.77-1.84,5.66-2.74
			c2.03-0.19,0.11,2.06,1.24,2.59c2.45-2.99,2.84-0.09,5.44-1.41c-1.93-0.64-1.64-2.66,0.18-4.08l-3.8,1.19
			c0.48-6.13,6.43-1.33,7.03-7.47l0.48,2.4c0.68-2.88,5.84-8.55,3.75-13.33c0.81-0.05,2.42,0.25,2.05,1.5
			c2.18-2.6,3.36-6.4,4.62-9.88c1.27-3.51,2.63-6.72,5.25-8.17l0.83,1.18c0.4-1.27-0.87-3.26,1.14-3.86
			c0.42,0.38,0.84,1.17,1.23,0.72c-0.01-0.83-0.1-4.15,1.49-5.15l0.47,2.04c2.6-2.32,3.21-5.05,3.44-7.81
			c0.22-2.77,0.14-5.51,1.15-8.22c3.39,2.06,7.22-1.96,9.14-3.99l0.44,0.36c2.3-3.57,3.25-7.34,3.7-11.11
			c0.45-3.8,0.43-7.63,0.7-11.83c2.69-1.97,4.16-6.53,4.31-12.09c0.01-2.79-0.2-5.78-0.83-8.75c-0.55-2.95-1.4-5.87-2.21-8.58
			c0.08,0.92-0.64,1.2-1.52,1.11c-0.87-0.1-1.92-0.52-2.55-1.15c-0.28-1.21-1.79-2.11-2.81-2.82c-1.03-0.7-1.59-1.35-0.14-2.46
			l0.49,0.66c0.78-1.84,0.08-3.53-1.16-4.97c-1.24-1.43-2.97-2.53-4.32-3.57c-1.08,1.17-2.15,2.36-3.21,3.55
			c-0.66-2.59-2.32-4.49-4.2-5.77c-1.88-1.26-4.1-2.11-6.23-2.87c-2.15-0.72-4.23-1.27-5.81-2.17c-1.58-0.91-2.72-2.02-3.03-3.84
			c-2.14,0.37-4.17-0.56-6.26-0.13l1.05-2.33c-2.22-1.2-3.89-2.1-5.76-2.91c-1.87-0.81-3.97-1.38-6.99-2.09l1.76-1.33
			c-3.31-1.31-6.39,5.7-9.39,4.96l0.13-3.92c-2.88-0.82-5.61-2.27-8.44-3.42c-2.84-1.02-5.8-1.68-9.01-0.53
			c0.2-0.53,0.58-1.58,1.56-1.55c-1.37-0.3-3.93-1.43-6.15-1.81c-2.22-0.38-4.06,0.07-3.97,2.71c0.47-3.37-6-1.29-9.3-0.15
			l0.81-2.42c-3.06,2.85-3.24,3.67-7,4.17c-0.83-0.42-0.55-2.08,0.54-1.32c-2.77-1.6-2.5,2.11-5.88,0.45l1.46-1.48
			c-2.97-0.46-2.82,0.42-4.61,2.14c-1.95,0.82-5.58-1.08-5.88-3.36c-0.5,1.35-2.25,3.09-3.96,2.32c-0.18-0.87,0.49-1.36,0.83-1.6
			c-4.9-2-7.56,2.49-10.85-0.11c-0.04-0.83-0.24-1.26-0.51-1.52c3.95,0.2,7.15,0.55,6.83,0.71c0.13-2.31-3.08-2.88-0.35-5.94
			c-2.7,1.58-7.25,5.2-10.33,3.99c-0.14-0.23-0.28-0.46-0.38-0.82l0.33-0.25c-0.71-0.26-1.37-0.06-1.99,0.31
			c-0.99-0.41-1.61-0.71-2.57-0.77c-0.32-1.92-3.66-1.13-5.27-1.27c0.08,2.53-2.01,2.1-0.08,4.21c-0.25-0.19,0.31-0.3,1.37-0.37
			c0.24-0.07,0.52-0.1,0.69-0.24c-0.03,0.07-0.07,0.15-0.11,0.22c1.05-0.04,2.42-0.06,3.97-0.06c-1.3,1.25-2.64,2.29-4.36,0.84
			c-0.85,1.6-1.78,3.25-2.3,4.03c-2.1-3.55-6.31-5.5-6.9-7.69c-2.45,0.66-5.36,0.97-8.02,1.63c-2.65,0.66-5.07,1.8-6.53,4.23
			c-1.37,0.66-1.64-1.31-2.18-2.04c0.79-0.5,1.75-0.46,2.16-1.16c-1.38,0.66-3.44,0.84-5.22,1.29c-1.78,0.43-3.28,1.21-3.52,2.87
			c-3.58-1.28,1.8-3.17-2.99-2.34l0.59-1.05c-4.94-2.41-8.73,0.13-12.5,2.41c-1.9,1.11-3.79,2.33-5.93,2.85
			c-2.13,0.55-4.5,0.34-7.37-0.86c0.79,0.29,1.18,0.42,1.41,0.95c-3.08-0.24-6.14,0.05-9.17,0.64c-3.02,0.69-6,1.62-8.97,2.5
			c-2.95,1.02-5.89,1.98-8.9,2.58c-2.98,0.73-6.03,1.15-9.29,0.93c-3.56,0.22-3.2,2.41-4.56,4.62l-1.65-2.28l-2.18,4.17
			c-1.86,2.03-4.45,1.38-7.2,1.05c-1.36-0.15-2.78-0.28-4.06,0.15c-1.27,0.44-2.46,1.33-3.39,3.04l1.57,1.25
			c-1.09,0.37-2.57,1.44-3.86,2.16c-1.3,0.69-2.33,1.18-2.69,0.15c-0.04,0.41,0.3,2.04-0.94,1.67l-0.77-1.19l-3.56,4.97
			c-2.13,0.66-2.73-0.54-3.52-1.62c-0.78-1.06-1.73-1.9-4.5-0.15c-1.73,1.86-3.24,7.27-1.92,7.52c0.83-0.49,2.52-0.66,3.4,0.46
			l-1.31,1.8c1.08,1.79,1.95,3.78,3.27,5.25c1.32,1.46,3.1,2.44,5.92,2.27l1.32-4.03l2.02,1.07l-2.25,1.71
			c2.39,0.67,2.25-1.29,2.57-2.92c0.8,0.74,1.61,1.13,2.4,1.14c0.22-1.68,0.46-3.38,0.73-5.1c1.18,1.2,0.42,3.54,2.77,3.19
			c0.38-2.4-3.17-2.39-1.56-4.77c2.37,0.8,2.71,2.41,3.54,0.01c0.76,0.81,0.74,1.61,0.34,2.41c0.38-1.02,1.32-1.62,2.1-2.31
			c0.78-0.69,1.42-1.43,1.3-2.62c2.56,1.32,4.83-3.19,6.41,0.53c0.07-1.07,1.41-4.02,2.79-4.81c-0.35,2.75,1.01,2.23,2.6,1.64
			c1.58-0.63,3.5-1.11,4.08,1.37c0.18-2.34,1.78-3.45,3.66-4.41c1.86-1.01,4.07-1.64,5.49-3.34c-0.1,0.39-0.28,1.16-0.66,1.05
			c2.11-0.29,3.07,0.75,4.57,1.13c-0.37-1.72,0.15-3.06,0.95-4.22c0.8-1.15,1.84-2.19,2.44-3.47c3.39,2.63-0.47,4.4,1.18,7.35
			c-0.88-2.72,3.59-3.88,2.17-5.97c2.43,1.55,1.9,0.54,3.56,3.17c-0.65-4.37,1.63-1.11,2.66-4.09c3.27,1.53,1.56,3.89,4.37,1.93
			C186.4,75.13,184,77.24,184,77.24z M259.42,65.2c0,0.02,0,0.04,0,0.05c-0.67,0.03-1.25,0.06-1.61,0.08
			C258.14,65.31,258.61,65.27,259.42,65.2z M265.97,65.44c-0.79-0.15-1.78-0.2-2.84-0.22c-0.19-0.88,0.09-1.77,0.75-1.7
			C263.51,64.09,265.04,64.64,265.97,65.44z M252.56,47.42c1.08-0.33,1.42,0.18,1.55,0.7c-0.5,0.03-1.1,0.1-1.87,0.25
			c-0.03,0.09-0.1,0.2-0.13,0.31C252.22,48.19,252.35,47.74,252.56,47.42z"/>
		<path class="st0" d="M250.57,50.68c-0.15,0.05-0.24,0.16-0.44,0.17c0.21,0.23,0.41,0.42,0.62,0.59c0.14-0.27,0.27-0.54,0.39-0.78
			C250.95,50.67,250.75,50.67,250.57,50.68z"/>
		<path class="st0" d="M517.91,347.79l-0.14-0.06c0.11,0.1,0.22,0.21,0.28,0.37C517.96,347.97,517.96,347.89,517.91,347.79z"/>
		<polygon class="st0" points="350.57,87.37 350.83,86.78 350.1,87.08 		"/>
		<path class="st0" d="M554.35,356.75c0.07,0.22,0.21,0.45,0.49,0.64C554.82,357.23,554.6,357,554.35,356.75z"/>
		<path class="st0" d="M570.21,356.99l2.27,0.84C571.5,357.34,570.78,357.12,570.21,356.99z"/>
		<path class="st0" d="M582.46,357.8c0.13-0.45,0.16-0.79,0.19-1.1c-0.01-0.01-0.02-0.01-0.02-0.01L582.46,357.8z"/>
		<path class="st0" d="M388.86,352.11c-0.16,0-0.33,0.01-0.48,0.07C387.24,352.55,388.01,352.44,388.86,352.11z"/>
		<path class="st0" d="M446.66,351.51c-0.64,0.41-1.28,0.81-1.94,1.04C445.72,352.83,446.51,352.94,446.66,351.51z"/>
		<path class="st0" d="M321.68,342.81c0.01-0.01,0.01-0.02,0.03-0.04c-0.15-0.07-0.28-0.14-0.43-0.22L321.68,342.81z"/>
		<path class="st0" d="M442.06,352.29c0.98,0.59,1.84,0.55,2.66,0.26C443.9,352.32,442.93,351.98,442.06,352.29z"/>
		<path class="st0" d="M635.42,354.76l0.6,0.03c-0.03-0.17-0.01-0.3,0.02-0.41L635.42,354.76z"/>
		<path class="st0" d="M636.04,354.38l0.62-0.38C636.35,354.04,636.1,354.09,636.04,354.38z"/>
		<path class="st0" d="M637.95,353.19l-1.29,0.8C637.13,353.95,637.72,353.95,637.95,353.19z"/>
		<path class="st0" d="M619.17,355.27l-0.1,0.93C619.16,356.01,619.19,355.7,619.17,355.27z"/>
		<path class="st0" d="M614.3,356.02c1.18,0.09,3.11,1.66,4.69,0.93l0.09-0.74C618.43,357.64,615.27,354.37,614.3,356.02z"/>
		<path class="st0" d="M593.15,346.16c1.37,0.19,2.73,0.33,4.1,0.48c-0.77-0.92-1.78-2.17,0.04-2.54
			C592.01,341.55,598.48,346.25,593.15,346.16z"/>
		<path class="st0" d="M580.51,345.36c2.16-0.56-0.09-1.42,0.01-1.97C579.17,344.35,578.85,344.59,580.51,345.36z"/>
		<path class="st0" d="M489.54,344.7l0.33-2.29C488.18,342.66,489.82,343.3,489.54,344.7z"/>
		<polygon class="st0" points="471.4,355.59 472.96,357.11 473.88,355.05 		"/>
		<polygon class="st0" points="462.19,338.53 462.94,338.26 460.09,338.89 		"/>
		<path class="st0" d="M319.7,314.54c-0.61,0.74-1.21,1.48-1.81,2.24c0.49,0.19,1.34-0.26,1.86-0.81
			C320.25,315.43,320.48,314.78,319.7,314.54z"/>
		<path class="st0" d="M313.17,259.57c0.77-0.14,1.48-0.57,1.87-1.14c0.42-0.57,0.54-1.27,0.05-2c-0.31,0.65-0.87,1.22-1.29,1.74
			C313.4,258.7,313.08,259.17,313.17,259.57z"/>
		<path class="st0" d="M376.85,75.62c0.6-0.01,1.22,0.03,1.84,0.05c-0.99-0.33-1.96-0.63-2.91-0.89L376.85,75.62z"/>
	</g>
	<g>
		<path class="st0" d="M227.17,155.47c0.28-0.75,0.34-2.51-0.25-2.22l-0.7,2.92L227.17,155.47z"/>
		<path class="st0" d="M223.99,149.6c-0.8,1.37-1.81,3.82-1.67,6.58c0.94-2.78,0.97-1.58,2.02-4.9c0.59-0.29,0.88,1.05,0.67,2.13
			c0.27-0.74,0.8,0.74,1.29-1.09c-0.49-2.37-1.4-2.55-2.55-0.76C223.6,150.9,223.88,150.14,223.99,149.6z"/>
		<path class="st0" d="M170.02,139.45l0.31,0.39C170.26,139.63,170.15,139.51,170.02,139.45z"/>
		<path class="st0" d="M136.45,134.39c0.26-0.04,0.4-0.33,0.44-0.6C136.64,133.97,136.42,134.13,136.45,134.39z"/>
		<path class="st0" d="M131.03,130.54c0.11,0.11,0.21,0.16,0.32,0.24C131.24,130.49,131.13,130.33,131.03,130.54z"/>
		<path class="st0" d="M170.02,139.45l-0.81-1.02C169.05,139.38,169.6,139.19,170.02,139.45z"/>
		<path class="st0" d="M215.75,155.99c0.2-0.12,0.39-0.38,0.57-0.73c-0.17,0.11-0.33,0.21-0.49,0.27
			C215.8,155.68,215.78,155.81,215.75,155.99z"/>
		<path class="st0" d="M185.13,138.56l0.27,0.02c0.11-0.33,0.23-0.73,0.35-1.18L185.13,138.56z"/>
		<path class="st0" d="M196.59,139.26c-0.25-0.14-0.59,2.37-0.8,3.46c0.25-1.02,0.49-1.5,0.74-1.67
			C196.58,140.58,196.6,140,196.59,139.26z"/>
		<path class="st0" d="M214.23,145.53l0.36-0.31C214.49,145.31,214.34,145.4,214.23,145.53z"/>
		<path class="st0" d="M177.02,137.18c0.02-0.38,0.01-0.71-0.01-0.91C176.97,136.59,176.98,136.89,177.02,137.18z"/>
		<path class="st0" d="M135.94,6.42c0.11,0.15,0.19,0.23,0.28,0.35C136.11,6.53,136.02,6.38,135.94,6.42z"/>
		<path class="st0" d="M154.19,7.84l-0.06,0.22c0.28,0.39,0.56,0.77,0.85,1.14L154.19,7.84z"/>
		<path class="st0" d="M120.82,126.25c0.02,0.03,0.02,0.03,0.04,0.05C121.16,126.04,121,126.07,120.82,126.25z"/>
		<path class="st0" d="M44.75,120.39c-2.19,0.91-3.81,1.48-5.6,2.06c-1.76,0.58-3.7,1.18-5.83,2.22c1-0.4,3.31-1.15,5.57-1.98
			C41.16,121.88,43.41,120.99,44.75,120.39z"/>
		<path class="st0" d="M215.49,155.63c-0.16,0.01-0.32,0.02-0.47-0.02C215.22,155.71,215.37,155.72,215.49,155.63z"/>
		<path class="st0" d="M33.31,124.67l-0.04,0.02l-0.39,0.2C33.06,124.8,33.16,124.75,33.31,124.67z"/>
		<path class="st0" d="M96.38,125.29c0,0.45,0.07,0.79,0.14,1.13C96.53,126.16,96.51,125.84,96.38,125.29z"/>
		<path class="st0" d="M114.11,130.71l-0.41-0.38C113.85,130.58,113.98,130.67,114.11,130.71z"/>
		<path class="st0" d="M86.62,127.89c-0.22-0.22-0.27-0.57-0.64-0.27c0.02,0.13,0.04,0.22,0.07,0.32
			C86.21,127.61,86.39,127.46,86.62,127.89z"/>
		<path class="st0" d="M76.85,126.91c0.03,0.2,0.09,0.35,0.13,0.53c0.1-0.04,0.22-0.07,0.32-0.1L76.85,126.91z"/>
		<path class="st0" d="M113.54,26.63c0.63,0.4,1.24,0.91,1.82,1.43C114.08,26.79,114.77,25.36,113.54,26.63z"/>
		<path class="st0" d="M215.89,154.57c-0.12,0.63-0.24,0.93-0.4,1.05c0.12-0.02,0.23-0.06,0.34-0.1
			C215.9,155.15,215.94,154.8,215.89,154.57z"/>
		<path class="st0" d="M84.21,147.7l-1.52-0.53C83.1,147.46,83.65,147.65,84.21,147.7z"/>
		<path class="st0" d="M61.04,74.59l0.05-0.47C60.95,74.17,60.91,74.32,61.04,74.59z"/>
		<path class="st0" d="M78.05,147.08c-0.19-0.92-0.43-1.46-0.7-1.83c-0.08,0.19-0.17,0.34-0.25,0.63L78.05,147.08z"/>
		<path class="st0" d="M115.38,28.08c-0.01,0-0.02-0.02-0.02-0.02S115.37,28.08,115.38,28.08z"/>
		<path class="st0" d="M119.43,16.79c-1.2,0.91,1.55,2.95,2.53,4.61c-0.76,1.88-2.21-1.34-3.77-2.25c-0.29,1.4,1.02,4.29,0.3,4.73
			c-0.4-0.38-0.65-0.43-0.95-1.07c0.81,2.78-2.6,2.37-1.49,5.79c-0.27-0.16-0.49-0.34-0.67-0.51c1.25,1.12,2.37,2.39,3.12,3.34
			c-0.47,0.48,0.42,2.4-1.19,0.91c0.35-0.22-0.19-0.91-0.48-1.55l0.08,1.17c-2.51-1.97,0.03-1.44-1.47-3.2
			c-0.39,1.66,0.08,4.66-1.28,4.68c-2.16-2.18,1.19-2.39-1.64-3.53l1.99-0.17c-4.08-2.86,0.97-0.38-3.25-3.57
			c-2.21,0.73-0.81,2.75-3.01,3.47c0.74,1.6,1.76,1.8,2.5,3.4c-0.3,4.29-6.84-4.25-5.87,0.29c0.9,1.92,3.26,4.98,0.72,4.48
			l-1.86-2.96c-1.79,1.11,2.38,4.52-0.78,4.21c-0.61-1.28,0.47-1.94-0.04-2.04c-2.85-1.12,0.54,2.13-0.27,2.85l-2.19-2.15
			c-1.34,1.82-1.71,5.09-3.17,7.12c-0.5-0.77-0.82-1.76-1.87-2.08c-1.28,3.2-5.15,4.12-8.59,4.76l0.92,2.72
			c-0.22,0.16-1.17-0.56-1.3-1.13c-1.53,0.03,1.08,1.28,1.36,2.43c-0.36,0.58-1.66-0.54-1.89-1.41c-0.01,3.04-1.06,7.5-4.56,6.86
			l-0.22-0.86c-1.97,0.35,2.26,5.26-0.55,4.5l-0.1-0.55c-3.44,1.64-4.74,6.15-9.5,5.13c2.21,3.13-3.79,1.24-0.32,5.26
			c-3.31-0.48-3.53-1.58-6.88-0.84c-0.74,0.36,1.44,3.2,1.12,4.27L63,71.88l1.06,3.01l-2.8-1.91l-0.16,1.15
			c0.37-0.13,1.41,0.37,1.93,0.98c-0.15,1.89-3.82,1.01-4.84,0.01l-0.79,4.02c-0.72-0.85-0.58-1.52-0.76-2.34
			c0.68,3.28-2.27-1.87-1.65,1.13c0.6,0.3,1.06,1.27,1.43,1.7c-1.75-0.63-3.12,0.64-3.6,2.12l-1.15-1.55
			c-2.12,1.4-3.11,4.34-5.13,6.28c1.34-0.07,3.51,2.45,3.15,3.25l-2.3-1.86c0.9,1.66,1.39,0.19,2.18,2.53
			c-0.98,0.49-2.85-1.88-3.09-2.98l-0.19,1.61c-0.67-0.57-0.78-1.11-1.51-1.95c0.91,1.65-3.63-0.53-1.93,2.24l-0.67-0.57
			c-2,1.97-2.18,3.58-3.68,5.29c1.77,1.82,0.74,2.05,1.71,3.97c-0.88,0.3-1.99,0.44-3.05,0.7c-0.53,0.13-1.04,0.29-1.5,0.52
			c-0.11,0.06-0.23,0.12-0.33,0.18c-0.1,0.06-0.32,0.24-0.46,0.37c-0.32,0.28-0.63,0.59-0.92,0.91c-0.37,1.28-0.04,1.71,0.4,2.07
			c0.45,0.35,1.02,0.62,1.3,1.41c-1.94-1.31-4.14,1.24-4.35-0.91c-1.31,1.6-2.1,2.61-2.8,3.77c-0.69,1.15-1.29,2.48-1.86,4.45
			c1.44-0.15,2.27-0.42,2.96,0c-0.1,0.65-2.36,1.08-3.6,0.77l-0.12-0.22c0.09,1.16-0.81,2.13-2.33,3.15
			c-1.51,1.02-3.64,2.1-5.81,3.29c-2.16,1.18-4.36,2.46-5.76,3.62c-1.4,1.15-2,2.17-0.81,2.66l-0.21-0.12
			c0.26,0.94,0.63,1.76,1.11,2.47c-1.05,0.82-1.63,0.81-2.37,0.77c-0.74-0.03-1.62-0.11-3.48,0.82c1.62,1.08,0.15,2.44-1.78,4.04
			c-0.95,0.78-1.97,1.59-2.61,2.28c-0.32,0.35-0.55,0.66-0.61,0.92c-0.03,0.13-0.02,0.25,0.03,0.35c-0.01,0.02,0.06,0.01,0.12,0
			l0.19-0.02l0.39-0.05c0.28-0.04,0.56-0.09,0.84-0.13c-5.48,2.82-1.79,3.1,2.19,3.11c2.02,0.01,4.14-0.06,5.61,0.14
			c1.48,0.2,2.32,0.65,1.96,1.71l2.06-1.39c3.44-1.21,0.11,0.94,0.56,1.36c1.57-1.09,0.7-1.38,2.64-2.05
			c3.11-0.15,5.59,0.02,7.89,0.42c2.32,0.39,4.45,1.01,6.68,1.74c2.35,0.8,4.7,1.61,7.05,2.41c2.51,0.83,5.22,1.65,8.06,2.3
			c1.05,0.21,1.81-0.17,2.39-0.82c0.29-0.32,0.54-0.7,0.75-1.11c0.14-0.43,0.27-0.83,0.41-1.24c0.54-1.6,1.1-2.77,2.25-0.73
			l-1.06,2.88c4.66-3.11,8.78,1.02,13.29-1.57c-0.32,0.66-0.42,1.54-0.83,1.49c0.67,2.24,3.28,0.44,3.47-1.31
			c0.64,0.27-0.01,1.6,0.3,2.53c0.76,1.36,2.52-2.52,2.77-0.33c0.05,0.36-0.32,0.67-0.5,0.82c0.69-0.98,2.68,0.54,2.38-2
			c1.46,1.34,3.13-0.79,4.25,0.8c1.1-2.69,2.57,1.61,3.23-2.28c-0.52,4.04,2.44,3.55,3.63,1.74c-0.46,1.19,0.74,1.36,0.18,3.01
			c1.15,0.06,2.27-0.59,2.28-2.69c1.61,5.06,4.62-3.47,5.17,2.86c3.61-1.83,6.89-2.99,10.03-3.62c-0.52,4.03-3.41,0.06-3.71,4.31
			c3.06-1.37,5.08-4.67,7.84-3.4c0.69,0.63-0.6,1.71-0.92,2.37c3.06-1.37,5.54,0.93,8.34-1c-0.05,0.38-0.36,0.76-0.66,1.04
			c0.52-0.08,1.12,0.71,1.25-1.13l-0.54,0.45c-0.54-2.75,2.58-5.36,2.81-6.76c-1.39,5.17,2.4,1.58,0.36,8.09
			c0.37-0.31,0.87-1.14,0.92-2.37c0.46,0.41,0.54,1.14-0.1,2.49c1.91-0.81,1.47-2.83,3.11-2.62c-0.1,0.89-0.46,1.2-0.74,2.23
			c1.01-1.65,2.02-3.3,3.33-2.4c-0.14,0.53-0.05,1.24-0.46,1.19c2.41-0.03,4.53-4.2,6.98-2.26c-1.16,3.78,0.76,1.36,0.56,4.72
			l1.51-0.85l-0.4-1.68c1.23,0.18,2.56-2.14,3.51-0.94L133.8,147l2.37-0.4l-1.18-1.4c1.42-1.6,0.3-4.24,1.84-3.15
			c-0.37,0.31,1.23,0.17,1.67,2.2c0,0,0,0-0.01,0.01c0.72-1,1.46-2.06,2.29-1.14c0.13,1.09-0.57,3.68-0.48,4.4
			c0.89-2.73,2.96-0.48,4.03-3.38c-0.32,0.67-0.52,2.43-0.47,2.79l0.74-2.22c0.5,0.78,0.54,1.14,0.31,2.53
			c1.67,0.59-0.11-4.3,1.74-2.26c-0.18,0.17-0.14,0.52-0.5,0.83c1.95,1.16,4.1-1.04,5.87,0.27c0.21,3.42-1.73,0.66-1.38,3.56
			c2.77-0.33,6.02-3.46,8.57-2.4l-0.45-0.42c0.85-4.71,1.72,2.55,3.27,0.44c-0.36,0.32-0.69,2.59-0.55,2.07
			c1.72,0.95,3.79-0.79,6.67-2.01l-0.46,1.19c0.95,1.2,2.72,0.91,3.81,1.58c0.46-1.18,1.1-0.92,0.88-2.73
			c2.82,7.31,7.11-3.04,9.65,3.06c-0.38-0.02-1,0.98-0.7,1.01l2.78-0.85c0-2.09-0.22-1.29-0.62-2.96c0.46-1.19,1.31-2.07,1.97-2
			c-1.34,1.25-0.33,3.32,0.07,4.53c-0.02-0.64,0.23-1.32,0.25-1.97c1.02,3.82,0.66-4.14,2.31-1.47l-0.21,1.08
			c0.77-0.48,1.57-1.85,2.31-1.46c0.07,2.43-0.87,1.04-1.12,3c1.09-0.03,2.59-4.32,3.32-1.83c-0.53,0.62-1.18,0.56-1.71,1.18
			c0.78,2.92,0.97,2.22,1.72,2.74l-0.07-0.07l1.7,1.46l-0.39-0.81c1.98-6.1,2.86-0.86,5.09-4.76c-2.16,3.69-0.52,2.21-0.93,4.91
			c0.39,0.8,1.01,1.72,0.73,2.46c1.08-2.1,1.26,1.87,2.8-1.21c-0.03,0.88,0.91,0.18,0.49,2.35c1.19-0.57-0.11-1.55,0.1-2.63
			c2.02-2.81,3.68,4.03,6.57,0.19c2.31-1.47,3-4.37,5.13-5.64c0.53,1.46-0.87,3.12-0.87,3.12c0.95,1.4,1.78,1.24,2.9,0.34
			c-0.28,0.74-0.14,1.41,0.07,2.42c0.84-0.15,0.87-3.12,1.81-1.73c-0.28,0.96-0.68,2.49-1.17,3.42c1.04-0.7,2.16-2.24,3.23-2.92
			c0.11,1.55-0.84,2.25-1.29,3.21c1.19-0.57,3.04-1.09,3.63-3.46l-0.63-0.93c0.42-0.07,0,2.09-0.35,2.5
			c-1.15,1.79-1.3-0.98-1.26-1.86l0.77-0.49c-0.21-5.2-2.93,0.53-4.33,0.09l0.97-3.66l-1.78,2.94c-0.21-1-0.21-3.1,0.55-3.59
			c-0.84-1.94-1.04,1.23-1.71-0.91c-0.06-0.33,0-0.5,0.1-0.64l-1.11,1.01c0.28-0.76,0.1-2.65,0.66-2.05
			c-1.57-2.33-3.18,2.5-3.56-0.39l0.17-0.21c-2.62,1.01-0.52,2.71-2.71,5.73l-0.57-6.87l-0.52,2.71c-0.25-0.12-0.73-0.38-0.53-1.46
			c-1.15,1.77,0.04,1.21-0.69,2.92c-0.98-2.62-3.53,0.82-3.36-3.56c-0.65,2.03,1.02,1.72-0.45,3.03c0.1-4.72-1.61,0.65-2.52-1.62
			c0.59-2.38,1.53-0.99,0.62-3.27c-1.1,4.02-2.11-1.12-3.14-0.43c-0.38,3.25-2.21,1.15-3.92,2.07c0.21-1.08-2.82-2.09-4.19-3.42
			l0.1-0.54c-0.62,3.26-2.09,2.48-3.28,3.05c0.24-1.96,0.52-2.72,1.22-3.54l-1.05-0.09c-0.35,1.03-0.74,1.55-1.46,1.86l0.51-2.43
			c-1.41-0.01-3.11,2.61-4.74,0.78c-0.33,2.28,0.78,6.53-1.28,7.87c0.06-1.25,0.2-3.37,0.75-3.83c-0.18,0.15-0.69,0.97-0.96,0.41
			l0.97-2.01c-0.73-1-0.61,1.7-1.24,1.44c0.19-1.77-0.36-1.31-0.12-2.7c0.18-0.15,0.5,0.79,0.82,0.12c-0.71-0.39-1.49-1.53-1.65-2.9
			c-0.04,1.01-0.24,2.38-0.81,2.56c-1.41-0.01-0.26-2.18-0.98-3.17c-0.46,1.19-1.22-0.17-1.52,2.47c-0.41-0.05-0.36-1.3-0.44-2.03
			c-0.84,1.09-3.41-0.01-2.88,2.88l0.17,0.2c-0.04,0.05-0.08,0.05-0.13,0.1c0.01,0,0,0,0.01,0l-0.01,0c-2.64,2.39-4.77-2-7.24-1.1
			l0.09-0.89c-1.51,0.87-3.18,0.28-4.38,2.08c-0.41-0.04-0.82-1.71-0.53-2.75c-1.14,0.56-1.36,1.54-2.76-0.08
			c1.24-1.43-0.23-1.4,1.22-1.02c-1.32-0.9-1.49-2.35-3.23-0.09c0.74-2.21-0.76-2.96-1.49-2.35l0.81,1.72
			c-0.78,0.25-1.41-0.01-2.05-0.27l0.66-2.94c-2.48-3.91-5.77,5.64-7.33-0.64c-0.97,2.01,1.4,1.62,0.48,3.99
			c-1.27-0.54-2.2-4.95-2.61-5c-1.63-1.83-2.12,4.18-3.89,2.86c0.13,1.08,0.07,3.95-1.44,4.8c-1.27-0.53-1.16-4.62-0.25-5.39
			c0.32-0.06,0.44,0.3,0.39,0.65c0.46-0.34,1.07-0.74,0.66-1.95l-0.28,1.05c-0.54-1.15-2.36-1.22-1.76-2.92
			c-1.09,0.91-0.6,1.7,0.08,2.32c-1.53-1.71-2.63-0.31-4.25-1.52c0.22,0.61,0.34,1.89,0.07,1.85c-2.41-1.57-1.32,1.9-3.09,2.19
			c-0.81-1.72,0.74-3.83-1.13-2.65c-0.95-1.2,0.06-2.84,0.57-3.67c-1.79,1.89-2.82-1.65-3.68-2.11l0.92-0.77
			c-0.55,0.46-0.96,0.4-1.37,0.36l0.26,2.17c-0.45-0.42-0.86-0.47-0.76-1.35c-0.65,1.34,0.03,3.57-1.17,5.38
			c-0.54-1.15-2.1,0.96-2.04-1.89c1.95,1.17,0.06-2.86,1.84-3.13c-0.37,0.3-0.78,0.25-1.23-0.18c-0.04-0.32,0.13-0.58,0.28-0.73
			c-1.7-2.72-1.23,3.1-3.25,2.83c0.42-1.56-0.16-3.06-0.53-2.76c0.82,0.12,0.12,2.69-0.75,3.83c-1.18-1.37-1.51,0.78-2.18,0.56
			l0.72,0.66c-0.43,1.56-1.06,1.29-2.01,1.7c0.05-1.25,0.91-0.77,0.64-1.35c-1.29,2.69-1.98-3.12-3.58-1.38
			c-0.54-1.14,0.24-2.99-0.26-3.78c-1.79,1.9-1.49-2.35-3.31-0.82c0.26,2.18,0.4,1.67-0.98,3.63l2.88-1.23l-2.06,2.93
			c0.82,0.11,1.87-1.17,2.33-0.75c-1.01,1.66-0.87,1.14-0.66,2.95c-0.8-3.32-2.42,1.64-3.5-0.66l0.58-5.28
			c-1.71-2.56-3.75,2.36-6.15,0.77l0.72,1c-0.55,2.07-1.6,0.13-2.5,0.9c0.26-1.76-0.19-2.46-0.43-3.59
			c-0.09,1.32-1.85-0.31-2.43,3.2l-0.9-2.44c-1.95-1.16-2.85,4.8-4.76,4c0.79-1.86,0.02-3.2,1.48-4.45
			c-0.66-0.08-1.21-0.47-1.35,0.75c-0.27-1.14-2.07,2.2-2.5,0.46c-0.36,0.75-0.63,2.59-1.36,2.37c-0.04-0.37,0.09-0.87,0.09-0.87
			c-0.09,0.87-1.28,1.07-0.83,3.09c-1.46-5.72-5.7-0.17-6.98-5.09c-1.5,0.45-3.28,0.84-4.6,0.84c0.14-0.52,0.09-0.88,0.32-0.67
			c-1.63-1.83-1.62,4.96-3.48,2.92c-0.75-2.96,1.24-1.44,0.7-2.58c0.31-5.85-2.55,0.54-3.58-2.99l0.37-0.31
			c-0.85-2.08-2.79,1.94-4.47,1.35c0,0,0.14-0.51,0.1-0.88c-1.48,2.85-3.8,3.6-5.54,4.26c0.75-2.22,0.87-1.13,0.79-3.47
			c-0.77,0.25-0.16,3.74-1.71,4.23c-0.35-1.3-1.31-2.49-1.2-4.97l1.41,0.01c-0.39-3.27-1.82-0.07-2.5-0.7l0.24-1.39
			c-0.27,0.03-0.52,0.11-0.74,0.23c-0.21,0.12-0.47,0.27-0.52,0.46c-0.24,0.48-0.44,0.87-0.64,1.26c-0.46,0.87-1.06,1.63-1.79,1.43
			l-0.18,1.05c-1.04,1.65-1.15,1.15-1.1,0.54c0.02-0.61,0.19-1.31-0.88-0.11c0.46-1.14,0.96-2.28,1.48-3.42
			c-0.43,0.39-1.3,1.16-2.38,1.89c-1.07,0.73-2.36,1.41-3.24,1.66c2.82-2.36,4.71-3.52,6.02-4.96c-0.34-0.06-1.31,0.13-2.94,1.73
			c0.46-0.3,1.3-1.09,1.08-0.56c-2.46,2.56-4.78,3.7-6.07,3.51c3.4-3.12,3.23-3.57,2.86-3.85c-0.36-0.28-1.14-0.41,2.27-2.75
			c-2.2,1.06-2.55,0.75-2.16,0.24c0.33-0.51,1.42-1.21,0.59-1.09c-10.08,4.36-0.63,0.09-11.66,4.5c-1.24,0.23-1.28,0.14-0.57-0.15
			l0.68-0.34l0.35-0.17l0.41-0.19l1.98-0.88c1.3-0.57,2.58-1.11,3.82-1.61c3.43-1.26,2.3-0.64,4.91-1.57
			c0.6-0.32,1.81-0.74,3.27-1.23c0.81-0.27,1.17-0.39,4.65-1.53c-1.97,0.63-3.38,1.08-4.07,1.27c-0.7,0.2-0.68,0.14,0.09-0.12
			c-1.67,0.52-3.4,1.1-5.18,1.73c-2.61,0.6-0.16-0.29,2.09-0.95c2.3-0.72,4.4-1.22,1.95-0.77c0.99-0.19,2-0.41,3.03-0.65
			c-0.88,0.18-0.78,0.09-1.38,0.1c-0.59,0-1.81,0.06-5.04,0.21c1.04-0.16,3.36-0.39,3.89-0.37c0.69-0.24-0.82-0.37-1.64-0.85
			c-0.87-0.43-1.08-1.16,0.72-1.06l1.45,0.44c-0.37-0.18-2.54-1.03-0.93-0.73c0.57,0.22,1.36,0.53,1.49,0.52
			c-0.22-0.11-0.76-0.4-1.09-0.68c-0.34-0.27-0.47-0.54-0.01-0.44c0.42,0.29,0.86,0.57,1.31,0.83c1.07,0.17,0.3-0.37-0.43-1.42
			c-0.37-0.52-0.78-1.12-1.02-1.75c-0.07-0.81-0.04-1.56,0.22-2.16c2.82,2.78,5.32,2.06,6.58,1.72l0.37,0.42
			c2.72-2.03,1.7-6.35,2.81-9.67c4.4,1.69,5.94-3.32,9.84-3.78c-0.84-0.18-2.1-2.26-1.99-2.93c1.08,0.06-0.48-3.38,1.98-0.7
			l-0.24,0.13c2.88,2.17,3.3,0.45,4.21-0.29l-3.17-3.55c7.01,2.85,4.02-7.42,9.52-4.09c-0.28-1.37,0.39-1.99,0.1-3.35l1.73,1.88
			c1.93-0.93,2.89-1.4,4.31-3.58l0.87,1.68c1.14-0.86-3.72-6.59-2.86-7.6l2.89,2.51c1.79-1.74,5.9-1.01,5.36-5.21
			c0.35,0.44,1.04,1.29,0.85,1.68c0.92-0.73,5.07-1.17,1.23-4.73c2.32,2.48,2.12-1.49,2.11-3.5l1.54,1.99
			c-1.32-3.13-1.88-3.81-1.3-5.54c0.5-0.01,1.59,1.26,0.79,1.13c1.81,0.13-0.87-2.42,1.15-2.46l0.66,1.57
			c1.08-0.73,0.43-1.29-0.29-3.15c-0.07-1.29,2.25-1.17,3.91,0.39c-0.8-1.14-1.5-2.99-0.5-3.01c0.65,0.57,0.8,1.15,0.87,1.44
			c2.75-0.17,0.45-4.32,3.2-3.47c0.58,0.6,0.92,0.85,1.18,0.95c-1.32,1.1-2.44,1.92-2.46,1.7c1.54,1.72,2.84,1.1,4.15,4.22
			c-0.34-2.03-1.44-6.14,0.29-6.22c0.2,0.12,0.39,0.25,0.66,0.48l0.07,0.29c0.39-0.03,0.45-0.38,0.39-0.84
			c0.57,0,0.97,0.03,1.3-0.22c1.39,1.33,1.87-0.27,2.45-0.66c-1.72-1.86-0.77-2.15-2.78-3.16c0.2,0.06,0.1,0.31-0.17,0.7
			c-0.03,0.12-0.1,0.23-0.05,0.39c-0.03-0.06-0.07-0.13-0.11-0.2c-0.29,0.35-0.7,0.79-1.18,1.26c-0.44-1.32-0.73-2.51,0.77-1.96
			c-0.81-1.45-1.62-2.97-1.97-3.7c3.04,2.02,5.67,2.25,7.29,3.72c0.64-2.47,3.11-3.97,1.01-8.42c0.06-0.85,1.42,0.58,2.07,1
			c0.05,0.59-0.31,0.8,0,1.44c0.11-1.71,2.38-2.68,0.43-5.38c2.12,0.15,1.35,2.87,2.57,1.1l0.45,0.95
			c6.52,1.36-0.44-10.76,7.43-8.51c-0.51-0.12-0.75-0.16-1.16-0.55c5.86-1.05,6.39-9.01,13.35-8.6c1.73-0.17,0.51-1.91,0.17-3.72
			l1.96,1.9l-0.81-3.39c0.22-3.14,7.08,2.82,6.46-2.26l-1.42-1.21c0.98-0.34,1.74-2.77,2.93-1.03c-0.13-0.32-0.94-1.69-0.05-1.18
			l0.91,1.09l0.35-3.4c2.09-0.36,3.3,4.59,5.58,3.12c0.44-1.05-0.34-5.03-1.22-5.54c-0.36,0.2-1.36-0.04-2.27-1.14l0.26-1.16
			c-2.47-3.39-4.57-7.2-8.18-8.06l0.35,3l-1.67-1.27l0.97-0.94c-1.79-1.02-1.11,0.61-0.81,1.85c-0.77-0.76-1.42-1.22-1.92-1.33
			l1.28,4.1c-1.17-1.16-1.48-2.98-2.87-3.03c0.59,1.91,2.85,2.43,2.66,4.14c-1.79-1.01-2.59-2.36-2.27-0.53
			c-0.77-0.76-1.06-1.42-1.08-2.01c0.19,1.51-1.31,1.75-0.23,3.74c-2.1-1.33-1.7,2.17-4.14-0.96c0.4,0.9,0.87,3.31,0.41,3.9
			c-1.96-4.53-2.3,1.52-5.25-2.65c1.93,3.94-1.58,3.73-1.43,6.68c-0.14-0.32-0.43-0.98-0.17-0.91c-0.99,0.36-2.03-0.45-3.03-0.67
			c2.15,2.8,1.48,4.4,2.23,6.61c-3.1-1.84-2.08-3.66-4.46-5.93c1.87,2.16,0.2,3.54,2.04,5.11c-2.06-1.03-1.27-0.28-3.51-2.22
			c2.7,3.49-0.18,1.13,0.96,3.7c-2.42-0.81-2.92-2.95-3.19-0.98C119.42,18.83,119.43,16.79,119.43,16.79z M97.86,45.45
			c-0.02-0.02-0.03-0.03-0.03-0.04c0.19-0.24,0.35-0.45,0.45-0.58C98.18,44.95,98.06,45.13,97.86,45.45z M95.7,47.44
			c0.33-0.16,0.68-0.45,1.01-0.78c0.66,0.58,1.17,1.33,0.92,1.49C97.37,47.61,96.52,47.69,95.7,47.44z M111.95,56.46
			c-0.11,0.57-0.55,0.3-0.94-0.05c0.13-0.18,0.27-0.41,0.4-0.76c-0.04-0.07-0.12-0.19-0.16-0.27
			C111.53,55.78,111.79,56.15,111.95,56.46z"/>
		<path class="st0" d="M110.37,53.43c0.01-0.09-0.03-0.19,0.02-0.26c-0.22-0.11-0.41-0.19-0.58-0.25c0.14,0.24,0.28,0.48,0.4,0.7
			C110.27,53.55,110.32,53.49,110.37,53.43z"/>
		<path class="st0" d="M170.39,139.9l-0.06-0.06c0.04,0.1,0.08,0.21,0.09,0.37C170.4,140.08,170.4,140,170.39,139.9z"/>
		<polygon class="st0" points="62.55,71.42 63,71.88 62.8,71.3 		"/>
		<path class="st0" d="M185.51,150.16c0.01,0.22,0.04,0.46,0.14,0.66C185.66,150.66,185.59,150.43,185.51,150.16z"/>
		<path class="st0" d="M192.36,151.43l0.89,1C192.88,151.87,192.6,151.6,192.36,151.43z"/>
		<path class="st0" d="M197.55,153.22c0.11-0.43,0.17-0.76,0.21-1.07c0-0.01-0.01-0.01-0.01-0.02L197.55,153.22z"/>
		<path class="st0" d="M112.76,147.59c-0.07,0.01-0.15,0.03-0.22,0.09C112.01,148.12,112.36,147.96,112.76,147.59z"/>
		<path class="st0" d="M138.5,144.26c-0.31,0.43-0.62,0.85-0.93,1.11C138,145.61,138.34,145.69,138.5,144.26z"/>
		<path class="st0" d="M84.38,147.76c0-0.03,0-0.01,0.01-0.04c-0.06,0-0.11-0.01-0.17-0.02L84.38,147.76z"/>
		<path class="st0" d="M136.41,145.21c0.4,0.55,0.78,0.48,1.16,0.16C137.22,145.16,136.82,144.86,136.41,145.21z"/>
		<path class="st0" d="M220.47,156.7l0.25,0.13c0.01-0.17,0.04-0.3,0.07-0.4L220.47,156.7z"/>
		<path class="st0" d="M220.78,156.43l0.31-0.27C220.97,156.15,220.85,156.16,220.78,156.43z"/>
		<path class="st0" d="M221.76,155.59l-0.66,0.57C221.31,156.19,221.55,156.29,221.76,155.59z"/>
		<path class="st0" d="M213.55,154.82l-0.17,0.91C213.44,155.54,213.5,155.25,213.55,154.82z"/>
		<path class="st0" d="M211.39,154.87c0.49,0.26,1.08,2.08,1.85,1.58l0.14-0.72C212.9,157.05,212.03,153.38,211.39,154.87z"/>
		<path class="st0" d="M203.61,142.68l1.72,0.91c-0.21-1-0.49-2.35,0.35-2.5C203.71,137.96,205.92,143.31,203.61,142.68z"/>
		<path class="st0" d="M198.2,140.71c1.01-0.35,0.13-1.41,0.24-1.96C197.74,139.57,197.57,139.78,198.2,140.71z"/>
		<path class="st0" d="M158.06,136.62l0.33-2.28C157.61,134.59,158.29,135.22,158.06,136.62z"/>
		<polygon class="st0" points="149.18,147.67 149.76,149.17 150.32,147.11 		"/>
		<polygon class="st0" points="146.31,130.9 146.67,130.6 145.34,131.31 		"/>
		<path class="st0" d="M78.81,124.86l-0.06,2.84C79.3,127.25,79.73,124.09,78.81,124.86z"/>
		<path class="st0" d="M50.82,124.92c0.24-1.4,0.32-2.31-0.5-0.99C50.53,124.14,50.51,125.25,50.82,124.92z"/>
		<polygon class="st0" points="72.71,93.2 72.95,94.29 73.19,92.96 		"/>
	</g>
</g>
<g id="Layer_2">
</g>
</svg>
