<?xml version="1.0" encoding="utf-8"?>
<!-- Generator: Adobe Illustrator 24.3.0, SVG Export Plug-In . SVG Version: 6.00 Build 0)  -->
<svg version="1.1" xmlns="http://www.w3.org/2000/svg" xmlns:xlink="http://www.w3.org/1999/xlink" x="0px" y="0px"
	 viewBox="0 0 176.73 458.29" style="enable-background:new 0 0 176.73 458.29;" xml:space="preserve">
<style type="text/css">
	.st0{fill:#FFFFFF;}
</style>
<g id="Layer_1">
	<g>
		<path class="st0" d="M70.51,0.66c-0.63-0.5-2.31-1.04-2.24-0.31l2.58,1.55L70.51,0.66z"/>
		<path class="st0" d="M63.72,2.56c1.04,1.26,3.01,3.1,5.71,3.74c-2.32-1.86-1.15-1.55-3.97-3.65C65.39,1.93,66.78,2,67.75,2.52
			c-0.62-0.51,1-0.68-0.59-1.72c-2.46-0.1-2.95,0.81-1.63,2.59C64.83,3.35,64.21,2.83,63.72,2.56z"/>
		<path class="st0" d="M29.29,54.4l0.51-0.18C29.58,54.22,29.41,54.29,29.29,54.4z"/>
		<path class="st0" d="M11.33,89.7c0.02-0.32-0.23-0.53-0.48-0.62C10.96,89.41,11.07,89.69,11.33,89.7z"/>
		<path class="st0" d="M6.35,95.59c0.13-0.13,0.2-0.24,0.29-0.36C6.34,95.33,6.15,95.45,6.35,95.59z"/>
		<path class="st0" d="M29.29,54.4l-1.33,0.44C28.77,55.38,28.85,54.73,29.29,54.4z"/>
		<path class="st0" d="M66.58,13.53c-0.03-0.26-0.2-0.55-0.45-0.86c0.03,0.22,0.05,0.43,0.04,0.62
			C66.31,13.37,66.42,13.43,66.58,13.53z"/>
		<path class="st0" d="M35.97,38.49l0.16-0.27c-0.24-0.25-0.55-0.54-0.9-0.85L35.97,38.49z"/>
		<path class="st0" d="M42.29,27.17c-0.24,0.19,1.88,1.58,2.77,2.24c-0.81-0.68-1.12-1.12-1.16-1.43
			C43.49,27.73,42.97,27.46,42.29,27.17z"/>
		<path class="st0" d="M56.08,11.58l-0.15-0.48C55.99,11.23,56.01,11.42,56.08,11.58z"/>
		<path class="st0" d="M30.65,46.22c-0.33-0.17-0.64-0.3-0.84-0.36C30.09,46.02,30.37,46.14,30.65,46.22z"/>
		<path class="st0" d="M117.01,344.22c-0.16-0.08-0.28-0.1-0.42-0.16C116.8,344.22,116.96,344.31,117.01,344.22z"/>
		<path class="st0" d="M99.41,353.48l-0.04-0.25c-0.42-0.22-0.84-0.44-1.26-0.64L99.41,353.48z"/>
		<path class="st0" d="M0.77,107.9c0.03-0.02,0.03-0.03,0.06-0.05C0.59,107.46,0.61,107.66,0.77,107.9z"/>
		<path class="st0" d="M69.69,194.5c-0.98-2.39,2.34-2.66,0.76-5.36C70.52,190.14,68.32,192.87,69.69,194.5z"/>
		<path class="st0" d="M66.13,13.69c-0.06,0.18-0.12,0.35-0.23,0.5C66.09,14.01,66.16,13.85,66.13,13.69z"/>
		<path class="st0" d="M70.45,189.14l0-0.02l-0.17-0.26C70.36,188.98,70.4,189.04,70.45,189.14z"/>
		<path class="st0" d="M2.23,138.68c0.43-0.13,0.75-0.3,1.05-0.47C3.02,138.25,2.72,138.37,2.23,138.68z"/>
		<path class="st0" d="M5.09,116.05l-0.38,0.52C4.96,116.37,5.05,116.2,5.09,116.05z"/>
		<path class="st0" d="M8.25,149.65c-0.1,0.35-0.41,0.55,0.04,0.86c0.11-0.08,0.18-0.14,0.26-0.21
			C8.17,150.25,7.96,150.1,8.25,149.65z"/>
		<path class="st0" d="M12.91,161.27c0.14-0.15,0.23-0.29,0.35-0.44c-0.1-0.09-0.2-0.2-0.3-0.29L12.91,161.27z"/>
		<path class="st0" d="M126.33,309.98c-0.75,0.09-1.55,0.06-2.34,0C125.79,310.21,126.02,312.03,126.33,309.98z"/>
		<path class="st0" d="M65.3,12.9c0.54,0.34,0.78,0.57,0.82,0.79c0.03-0.13,0.05-0.27,0.05-0.4C65.86,13.09,65.54,12.93,65.3,12.9z"
			/>
		<path class="st0" d="M27.48,144.34c0.01,0.49,0.06,0.97,0.09,1.47C27.68,145.35,27.63,144.83,27.48,144.34z"/>
		<path class="st0" d="M131.77,226.92l0.35,0.41C132.16,227.16,132.07,227.01,131.77,226.92z"/>
		<path class="st0" d="M29.4,149.54c-0.72,0.58-1.08,1.04-1.28,1.43c0.21-0.03,0.38-0.04,0.66-0.12L29.4,149.54z"/>
		<path class="st0" d="M123.97,309.97c0.01,0,0.03,0,0.03,0S123.98,309.97,123.97,309.97z"/>
		<path class="st0" d="M126.71,323.32c0.55-1.7-2.91-1.7-4.64-2.58c-0.36-2.27,2.61-0.28,4.44-0.52c-0.5-1.52-3.19-3.28-2.81-4.18
			c0.55,0.07,0.79-0.07,1.4,0.32c-2.17-1.99,0.88-4.04-1.97-6.37c0.31-0.05,0.6-0.04,0.85-0.01c-1.68-0.13-3.34-0.49-4.5-0.82
			c0.12-0.76-1.72-1.86,0.47-1.65c-0.17,0.44,0.67,0.68,1.28,1.05l-0.73-1c3.21-0.01,0.8,1.32,3.05,1.85
			c-0.62-1.79-2.71-4.14-1.62-5.13c3.04,0.39,0.42,3.01,3.41,2c-0.51,0.54-1.05,1.06-1.57,1.59c5.04-0.35-0.6,1.05,4.74,0.9
			c1.46-2.28-0.93-3.1,0.47-5.38c-1.55-0.9-2.5-0.33-4.05-1.22c-2.29-4.03,8.13-1.26,4.58-4.62c-1.89-1.04-5.65-1.97-3.32-3.43
			l3.3,1.21c0.76-2.35-4.66-2.19-1.94-4.3c1.27,0.66,0.81,2.06,1.28,1.76c2.98-1.19-1.73-1.46-1.55-2.7l3.06,0.21
			c-0.13-2.65-1.84-5.76-2.09-8.64c0.89,0.27,1.78,0.87,2.79,0.32c-0.55-1.89-0.25-3.78,0.48-5.63c0.7-1.85,1.76-3.67,2.82-5.35
			l-2.52-1.53c0.05-0.31,1.24-0.49,1.72-0.11c1.11-1.29-1.67-0.19-2.65-0.91c-0.12-0.78,1.58-0.91,2.35-0.37
			c-2.12-2.58-4.41-7.04-1.54-9.45l0.77,0.52c1.12-1.95-5.36-2.36-2.86-4.1l0.46,0.36c0.31-1.05,0.4-2.14,0.42-3.22
			c-0.01-1.08-0.09-2.17-0.08-3.22c0.01-2.1,0.43-4.08,2.35-5.76c-3.83-0.5,1.53-4.29-3.78-4.34c2.53-2.54,3.53-1.87,5.07-5.49
			c0.17-0.97-3.4-1.16-4.05-2.26l2.76-0.26l-3.04-1.31l3.22-1.17l-0.82-1.03c-0.12,0.46-1.14,1.06-1.94,1.08
			c-1.41-1.54,1.42-4.4,2.81-4.67c-0.96-1.29-1.97-2.56-2.99-3.81c1.12-0.11,1.62,0.53,2.41,0.97c-3.17-1.76,2.81-0.93-0.13-2.56
			c-0.56,0.4-1.65,0.17-2.21,0.23c1.46-1.34,0.92-3.78-0.24-5.36l1.93-0.15c-0.41-3.43-2.94-6.67-4.64-10.3
			c-0.2,1.69-3.38,2.7-4.12,1.87l2.45-1.67c-1.95,0.15-0.49,1.52-3.13,1.18c-0.3-1.38,2.54-2.39,3.78-2.03
			c-0.57-0.39-1.13-0.78-1.74-1.14c0.72-0.51,1.33-0.35,2.37-0.77c-0.99,0.09-0.73-0.96-0.67-2.01c0.06-1.04-0.14-2.04-1.76-1.65
			l0.67-0.56c-1.1-1.79-2.3-2.88-3.4-3.86c-1.07-1-2.27-1.77-3.48-3c-0.93,0.86-1.51,0.94-2.14,0.94c-0.64,0-1.31-0.12-2.36,0.31
			c-0.29-0.54-0.56-1.16-0.84-1.8c-0.29-0.62-0.61-1.26-0.97-1.9c-0.36-0.63-0.75-1.28-1.24-1.81c-0.49-0.53-1.05-1-1.7-1.35
			c-2.39-0.03-1.62,1.49-3.15,2.34c1.07-2.05-1.55-3.24,0.54-3.98c-1.62-0.7-2.66-1.01-3.87-1.24c-1.2-0.25-2.59-0.22-4.8-0.07
			c0.1,1.03,0.4,1.6-0.1,2.25c-0.78,0.09-1.19-1.42-0.75-2.46l0.26-0.17c-1.34,0.48-2.46,0.09-3.52-0.58
			c-1.05-0.7-2.06-1.8-3.06-2.79c-1.01-1.02-2.03-1.96-3.05-2.37c-1.03-0.44-2.07-0.35-3.09,0.71l0.22-0.2
			c-1.29,0.63-2.54,1.27-3.76,1.95c-1.48-0.61,1.17-1.58,0.23-3.16c-4.14,3.3-5.6-1.28-8.76,0.93c-1.46-7.01-7.76-0.38-9.88-5.08
			l-0.06,1.61c-0.94,1.46-0.72-1.03-1.17-1.47c-0.11,1.24,0.54,1.54-0.02,2.33c-3.14,0.53-6.06-0.61-8.59-2.27
			c-2.55-1.67-4.62-3.85-6.46-5.43c-0.66-0.55-1.75,1.22-2.77,2.56c-1,1.35-2,2.25-2.1-0.02c0.68-0.76,1.34-1.52,1.98-2.3
			c-1.16,0.36-2.21,0.32-3.04-0.03c-0.42-0.17-0.84-0.36-1.21-0.61c-0.36-0.27-0.7-0.56-1.04-0.85l-0.51-0.43l-0.48-0.46
			c-0.32-0.3-0.67-0.58-1.04-0.82c-0.69-0.56-1.6-0.89-2.73-1.11c0.66-0.29,1.33-0.88,1.54-0.61c0.57-1.01,0.18-1.5-0.56-1.64
			c-0.72-0.15-1.78,0-2.49,0.53c-0.18-0.58,1.19-1.06,1.71-1.86c0.29-0.65-0.53-0.61-1.24-0.66c-0.71-0.03-1.34-0.12-0.54-0.86
			c0.26-0.24,0.71-0.2,0.92-0.18c-1.18,0.19-0.94-2.09-2.86-0.42c0.08-0.45-0.02-0.78-0.21-1.06c-0.17-0.29-0.44-0.53-0.69-0.76
			c-0.51-0.47-0.99-0.93-0.54-1.78c-1.42,0.23-1.38-0.5-1.43-1.08c-0.04-0.6-0.16-1.09-2.05-0.49c1.92-0.69,2.44-1.58,2.25-2.32
			c-0.17-0.76-1.1-1.41-2.17-1.58c1.26-0.06,0.99-1.17,2.72-1.3c-0.34-0.99-1.34-1.73-3.31-1.03c2.11-1.61,0.93-2.31-0.06-3.05
			c-0.97-0.73-1.76-1.47,1.2-2.57c-2.72-2.85-4.52-5.96-5.63-9.1c2.03-0.04,2.17,0.82,2.35,1.63c0.2,0.81,0.41,1.59,2.53,1.34
			c-1.92-2.66-5.45-4.34-4.51-7.38c0.57-0.78,1.75,0.44,2.46,0.68c-0.83-1.47-0.75-2.93-0.65-4.33c0.07-1.41,0.12-2.76-0.88-4.19
			c0.38,0.04,0.77,0.36,1.06,0.65c-0.09-0.54,0.68-1.17-1.16-1.27l0.46,0.56c-1.36,0.32-2.73-0.31-3.91-1.09
			c-1.17-0.77-2.17-1.69-2.86-1.81c5.16,1.46,1.61-2.62,8.09-0.4c-0.3-0.38-1.11-0.92-2.35-0.99c0.42-0.48,1.16-0.55,2.49,0.14
			c-0.74-2-2.81-1.61-2.5-3.34c0.88,0.14,1.17,0.54,2.18,0.87c-1.58-1.11-3.19-2.29-2.18-3.64c0.51,0.18,1.24,0.13,1.14,0.56
			c0.18-2.5-3.75-5.22-1.44-7.65c3.58,1.71,1.47-0.64,4.76,0.03c-0.22-0.56-0.4-1.12-0.6-1.68L22.4,97.3
			c0.4-1.25-1.67-3.06-0.27-3.86l1.05,1.33l0.1-2.56l-1.62,0.99c-1.27-1.81-4.12-1.08-2.69-2.56c0.21,0.46,0.47-1.31,2.57-1.36
			c0,0,0,0,0.01,0.01c-0.81-0.98-1.64-2.02-0.51-2.69c1.1,0.12,3.43,1.45,4.16,1.53c-1.21-0.77-1.14-1.59-1.05-2.41
			c0.09-0.83,0.17-1.68-1.06-2.63c0.55,0.53,2.18,1.19,2.55,1.24l-1.92-1.37c0.91-0.31,1.29-0.25,2.54,0.38
			c1.14-1.57-4.17-1.09-1.58-2.45c0.1,0.24,0.45,0.29,0.62,0.77c1.78-1.69,0.4-4.63,2.35-6.05c3.32,0.89-0.03,1.99,2.86,2.56
			c0.36-1.46,0.1-3.29,0.01-5.05c-0.05-1.75,0.07-3.43,1.09-4.55l-0.58,0.31c-4.05-2.58,3.08-0.85,1.81-3.2
			c0.14,0.49,2.11,1.67,1.68,1.33c1.63-1.39,0.89-4.15,1.13-7.56l0.88,0.94c1.55-0.49,2.08-2.41,3.23-3.23
			c-0.86-0.95-0.31-1.48-2.08-2c8.01,0.14,0.69-8.48,7.52-8.52c-0.21,0.37,0.39,1.42,0.57,1.14l0.61-3.18
			c-1.9-0.88-1.28-0.32-3-0.61c-0.85-0.97-1.22-2.2-0.83-2.84c0.47,1.88,2.86,1.73,4.16,1.83c-0.6-0.25-1.09-0.79-1.67-1.08
			c3.99,0.57-3.43-2.41-0.18-2.96l0.87,0.67c-0.05-0.98-0.9-2.37-0.18-2.96c2.25,0.94,0.51,1.32,2.17,2.4
			c0.52-1.13-2.63-4.44-0.01-4.15c0.3,0.8-0.07,1.45,0.22,2.24c3.05,0.43,2.5-0.07,3.36-0.62l-0.1,0.04l2.18-1.14l-0.93,0.06
			c-4.58-4.55,0.65-3.29-1.84-7.18c2.33,3.72,1.77,1.43,4.04,2.94c0.92-0.08,2.07-0.36,2.61,0.23c-1.4-1.97,2.34-0.57,0.27-3.39
			c0.79,0.38,0.6-0.89,2.4,0.4c0.04-1.48-1.48-0.49-2.38-1.13c-1.64-3.21,5.52-2.31,3.27-6.87c-0.33-3-2.69-4.76-3-7.45
			c1.6-0.05,2.56,2.02,2.56,2.02c1.71-0.52,1.93-1.48,1.55-2.98c0.58,0.55,1.27,0.62,2.32,0.73c0.22-0.96-2.57-1.96-0.88-2.53
			c0.79,0.62,2.09,1.56,2.76,2.4c-0.22-1.37-1.25-3.1-1.47-4.48c1.52,0.36,1.81,1.62,2.54,2.42c-0.06-1.5,0.19-3.69-1.86-5.04
			l-1.14,0.4c0.09-0.47,2,0.63,2.25,1.14c1.25,1.81-1.45,1.12-2.27,0.8l-0.16-0.98c-5.04-1.41-0.6,3.33-1.64,4.7l-3.06-2.26
			l2.03,2.87c-1.04-0.11-3.01-0.84-3.15-1.8c-2.18,0.21,0.73,1.52-1.56,1.48c-0.34-0.05-0.47-0.17-0.56-0.33l0.49,1.52
			c-0.6-0.56-2.43-1.04-1.64-1.41c-2.8,0.8,0.97,4.18-1.89,3.53l-0.12-0.26c-0.21,3.07,2.3,1.53,4.12,4.95l-6.62-2.01l2.27,1.57
			c-0.23,0.21-0.69,0.61-1.6-0.02c1.11,1.86,1.13,0.42,2.38,1.84c-2.87-0.01-0.89,3.96-4.84,2.05c1.56,1.48,2.07-0.36,2.57,1.67
			c-4.29-1.99-0.18,1.9-2.7,1.92c-1.9-1.57-0.18-1.96-2.69-1.95c3.15,2.74-2.02,1.69-1.9,3c2.78,1.72-0.04,2.71-0.04,4.83
			c-0.88-0.67-3.31,1.99-5.2,2.82l-0.44-0.33c2.65,2,1.21,3.17,1.13,4.61c-1.66-1.07-2.21-1.67-2.61-2.72l-0.61,1.03
			c0.76,0.79,1.04,1.4,0.96,2.26l-1.95-1.54c-0.72,1.43,0.81,4.25-1.66,5.17c1.92,1.29,6.34,1.92,6.54,4.57
			c-1.11-0.57-2.98-1.6-3.12-2.35c0.04,0.24,0.54,1.1-0.11,1.15l-1.35-1.82c-1.27,0.33,1.25,1.32,0.69,1.86
			c-1.52-0.93-1.37-0.18-2.53-1c-0.05-0.25,0.97-0.18,0.52-0.79c-0.71,0.56-2.14,0.9-3.47,0.49c0.91,0.46,2.05,1.23,1.93,1.88
			c-0.71,1.45-2.12-0.62-3.38-0.27c0.86,0.97-0.76,1.2,1.51,2.57c-0.25,0.4-1.36-0.15-2.08-0.36c0.58,1.3-1.68,3.55,1.24,4.15
			l0.27-0.09c0.03,0.06,0.01,0.1,0.03,0.18c0-0.01,0,0,0-0.01l0,0.01c0.94,3.67-4.12,4.18-4.42,7.15L24.99,61
			c0.1,1.9-1.19,3.48-0.01,5.39c-0.22,0.42-1.96,0.27-2.81-0.39c0.03,1.42,0.85,1.97-1.27,2.94c-0.84-1.82-1.44-0.22-0.44-1.66
			c-1.43,1.11-2.85,0.86-1.42,3.5c-1.8-1.53-3.13-0.1-2.85,0.9l1.97-0.36c-0.07,0.94-0.59,1.54-1.09,2.17l-2.55-1.63
			c-2.36,0.82-1.56,2.9-0.99,4.7c0.56,1.8,0.94,3.36-2.39,3.51c1.62,1.61,2.07-1.23,4.04,0.44c-0.96,1.28-5.56,1.37-5.74,1.86
			c-2.34,1.57,3.45,3.39,1.66,5.17c1.12,0.04,3.88,0.68,4.37,2.53c-0.81,1.33-4.84,0.55-5.37-0.66c0.02-0.39,0.4-0.47,0.74-0.35
			c-0.22-0.6-0.47-1.39-1.76-1.12l0.96,0.51c-1.27,0.44-1.79,2.6-3.33,1.62c0.66,1.46,1.54,0.97,2.32,0.27
			c-2.04,1.57-0.92,3.07-2.41,4.88c0.65-0.19,1.94-0.19,1.85,0.13c-2,2.69,1.64,1.78,1.67,3.88c-1.83,0.8-3.71-1.23-2.81,1.1
			c-1.34,1.04-2.84-0.28-3.58-0.97c1.63,2.31-2.02,3.35-2.58,4.44l-0.67-1.18c0.38,0.71,0.31,1.22,0.21,1.73l2.2-0.25
			c-0.46,0.54-0.55,1.05-1.43,0.9c1.29,0.83,3.58,0.09,5.29,1.57c-1.21,0.62,0.83,2.52-2.02,2.42c1.28-2.36-2.86-0.09-3.03-2.3
			c0.27,0.46,0.2,0.97-0.25,1.53c-0.33,0.05-0.57-0.16-0.71-0.35c-2.82,2.15,3,1.53,2.69,4c-1.56-0.49-3.07,0.28-2.78,0.73
			c0.13-1.03,2.7-0.22,3.83,0.8c-1.39,1.48,0.79,1.8,0.58,2.61l0.65-0.9c1.57,0.44,1.31,1.2,1.73,2.31
			c-1.25,0.02-0.79-1.04-1.36-0.68c1.35,0.69,0.59,1.32-0.27,2.03c-0.87,0.71-1.87,1.5-0.94,2.38c-1.09,0.77-3,0.01-3.74,0.71
			c2.05,1.99-2.23,2.15-0.47,4.26c2.13-0.65,1.61-0.72,3.73,0.67c-0.51-1.1-1.07-2.22-1.55-3.35c1.02,0.73,2.08,1.44,3.14,2.13
			c0-0.99-1.37-2.1-0.99-2.7c1.74,1.03,1.21,0.9,2.99,0.45c-1.63,0.66-1.15,1.34-0.53,2.02c0.61,0.69,1.36,1.37,0.28,2.17
			l-5.31,0.13c-1.13,1.27-0.39,2.36,0.48,3.47c0.92,1.13,1.93,2.29,1.44,3.93c0.27-0.37,0.53-0.74,0.81-1.1
			c2.13,0.2,0.51,1.89,1.48,2.79c-1.77,0.13-2.35,0.85-3.37,1.45c1.3-0.25,0.25,2.37,3.79,2.06c-0.7,0.59-1.37,1.19-2.05,1.81
			c-0.45,2.78,5.54,1.83,5.5,4.25c-2.04-0.23-3,1.18-4.73-0.12c0.18,0.82,0.04,1.64,1.24,1.34c-0.94,0.78,2.93,1.57,1.52,2.77
			c0.85,0.11,2.67-0.34,2.81,0.56c-0.31,0.21-0.83,0.27-0.83,0.27c0.84-0.26,1.58,0.96,3.19-0.41c-2.27,2.04-1.51,3.69-0.68,5.19
			c0.44,0.75,0.89,1.46,1.03,2.25c0.15,0.78,0.01,1.63-0.79,2.68c0.67,0.68,1.41,1.44,2.13,2.17c0.35,0.37,0.68,0.74,0.99,1.1
			c0.33,0.35,0.62,0.69,0.88,1.02c-0.5,0.2-0.74,0.48-0.76,0.11c-0.07,2.88,4.95-1.69,4.93,1.36c-1.49,2.8-2.06-0.15-2.43,1.16
			c-2.23,1.89-1.57,2.47-0.54,2.94c1.06,0.46,2.4,0.81,1.77,2.65c-0.19-0.03-0.38-0.06-0.56-0.1c-0.25,1.21,0.81,1.48,2.03,1.66
			c1.21,0.2,2.68,0.19,3.38,1.11c0,0-0.42,0.32-0.59,0.66c1.56-0.57,3.07-0.69,4.41-0.56c1.33,0.15,2.6,0.4,3.66,0.61
			c-1.77,1.58-1.45,0.49-2.39,2.66c0.97,0.25,1.84-3.26,3.67-2.84c-0.16,1.36,0.45,2.95-0.57,5.22l-1.67-0.79
			c-0.41,1.61,0.16,1.9,0.87,1.88c0.72-0.02,1.56-0.32,1.87,0.14l-0.75,1.19c2.84,0.85,4.29-2.33,6.84-1.04l0.11-1.1
			c1.35-1.34,1.44-0.77,1.54-0.1c0.09,0.67,0.17,1.46,1.31,0.47l-0.68,3.52c0.64-0.22,1.77-0.77,2.95-1.31
			c1.18-0.52,2.41-1.02,3.35-1.15c-1.6,2.35-4.04,3.03-5.84,4.14c1.01,0.31,3.53,0.77,4.47-0.84c-0.48,0.24-1.21,0.96-1.47,0.3
			c1.96-2.37,3.78-3.31,5.65-2.86c-0.9,3.32,0.3,4.04,1.75,4.55c1.45,0.51,3.15,0.85,3.45,3.58c3.83-1.99,6.71,2.02,10.64,2.05
			c-0.77-5.48,1.14-0.02,1.52-5.52c0.93-0.25,1.26-0.12,1.3,0.24l2.29,3.57c0.44,1.66-0.97,1.11-1.03,2.34
			c1.85,0.64,0.53,2.41,1.6,4.01c-0.02-1.99,0.98-2.72,1.94-1.84l-1.17-2.71c2.99-2.57,1.66,4.86,4.57,2.35l-1.05,1.6
			c1.51-0.85,4.56,0.76,6.64-3.32c0.1,0.67,0.08,2.19-0.54,2.48c1.37,0.62,3.17-0.18,4.87-0.65c0.87-0.26,1.67-0.4,2.35-0.29
			c0.69,0.1,1.23,0.47,1.47,1.31l-0.66,1.19c0.58-0.19,1.73-2.04,1.81-0.56c-0.25,0.5-0.7,1.17-0.52,1.32
			c0.39-0.34,2.11-1.62,2.38-0.64l-1.15,1.14c0.38,0.64,0.82,0.87,1.36,0.86c0.54-0.01,1.22-0.3,1.91-0.59
			c1.36-0.58,3.07-1.47,4.22-1.1c-1.2,1.58-1.61,2.92-1.75,3.93c-0.16,1.06-0.04,1.85,0.05,2.35l-0.41,0.39
			c0.66,1.02,1.94,1.16,3.45,1.41c0.77,0.1,1.61,0.18,2.39,0.4c0.79,0.21,1.62,0.45,2.31,0.87c-1.44,1.84-1.2,3.17-0.81,4.7
			c0.4,1.5,1.01,3.14,0.23,4.85c0.57-0.62,2.98-0.81,3.52-0.39c-0.6,0.87,3.17,1.27-0.39,2.02l0.01-0.26
			c-3.34,1.36-2.1,2.47-1.99,3.62l4.71-0.69c-3.11,2.17-2.18,3.98-1.24,5.82c0.95,1.8,1.91,3.54-1.1,4.67
			c1.25,0.69,1.3,1.67,2.54,2.39l-2.55,0.12c-0.5,2.23-0.82,3.37-0.09,6.1l-1.84-0.49c-0.1,1.54,7.42,1.72,7.63,3.2l-3.8,0.52
			c0.06,2.76-3.2,5.49,0.19,8.21c-0.56-0.05-1.65-0.15-1.8-0.59c-0.13,1.29-2.69,4.87,2.54,4.56c-3.39-0.07-0.39,2.8,1,4.37
			l-2.49-0.35c3.13,1.4,4.01,1.49,4.8,3.31c-0.35,0.4-2.02,0.25-1.35-0.27c-1.39,1.31,2.32,1.24,0.88,2.85l-1.56-0.74
			c-0.29,1.42,0.56,1.36,2.36,2.29c0.93,0.99-0.86,2.69-3.14,2.69c1.36,0.31,3.14,1.27,2.42,2.06c-0.86,0.03-1.37-0.32-1.61-0.5
			c-1.9,2.21,2.52,3.86-0.1,5.24c-0.83-0.06-1.25,0-1.52,0.1c0.28-1.88,0.58-3.38,0.75-3.22c-2.3-0.23-2.88,1.23-5.92-0.3
			c1.6,1.36,5.12,3.88,3.88,5.24c-0.23,0.04-0.46,0.09-0.82,0.1l-0.24-0.18c-0.27,0.31-0.09,0.64,0.27,0.98
			c-0.43,0.42-0.76,0.68-0.86,1.13c-1.92-0.08-1.27,1.58-1.47,2.31c2.51,0.29,1.97,1.23,4.17,0.6c-0.2,0.09-0.28-0.19-0.31-0.7
			c-0.06-0.12-0.08-0.26-0.21-0.36c0.06,0.02,0.14,0.05,0.21,0.08c0-0.51,0.04-1.16,0.1-1.9c1.19,0.76,2.17,1.55,0.66,2.19
			c1.55,0.62,3.15,1.29,3.89,1.65c-3.65,0.56-5.82,2.25-8,2.18c1.01,2.51-0.01,5.5,4.41,7.84c0.49,0.78-1.48,0.5-2.26,0.61
			c-0.39-0.47-0.23-0.9-0.87-1.23c0.96,1.54-0.32,3.94,2.87,4.93c-1.81,1.35-2.8-1.55-2.74,0.83l-0.93-0.51
			c-3.03,1.66-1.39,3.86,0.04,6.17c1.44,2.29,2.68,4.71-1.3,6.28c0.49-0.23,0.73-0.35,1.28-0.28c-2.2,2.4-2.27,5.44-2.71,8.41
			c-0.21,1.49-0.43,2.97-1.06,4.31c-0.63,1.34-1.6,2.55-3.18,3.5c-1.43,1.2,0.54,2.07,1.71,3.55l-2.68-0.59l2.35,2.66
			c0.65,1.53-1.28,1.93-2.98,2.46c-1.69,0.55-3.22,1.19-1.78,3.4l1.85,0.33c-0.73,0.88-0.32,3.62-2.19,2.63
			c0.27,0.23,1.62,1.07,0.58,1.09l-1.32-0.53c0.42,1.15,0.79,2.28,1.17,3.43c-1.79,1.48-5.03-2.57-6.51,0.03
			c0.05,1.22,2.46,4.63,3.49,4.65c0.25-0.38,1.28-0.69,2.59-0.12l0.24,1.27c3.72,1.94,7.24,4.57,11.01,3.34l-1.56-2.77l2.1,0.28
			l-0.53,1.5c2.11-0.03,0.81-1.25,0.01-2.3c1.05,0.3,1.85,0.37,2.37,0.19l-2.91-3.28c1.59,0.44,2.65,2.05,3.98,1.27
			c-1.38-1.53-3.69-0.69-4.27-2.48c2.09-0.07,3.42,0.76,2.32-0.84c1.05,0.28,1.6,0.75,1.88,1.32c-0.84-1.37,0.44-2.51-1.44-3.8
			c2.54,0.02,0.63-3.13,4.27-1.6c-0.78-0.63-2.32-2.67-2.18-3.53c3.89,3.15,1.39-2.91,6.02-0.77c-3.57-2.55-0.36-4.64-1.94-7.36
			c0.28,0.22,0.86,0.65,0.6,0.75c0.71-0.98,2.04-0.9,3.04-1.36c-3.3-1.25-3.48-3.2-5.29-4.77c3.65-0.33,3.7,2.07,6.94,2.64
			c-2.74-0.8-2-3.23-4.41-3.47c2.33-0.42,1.25-0.59,4.21-0.28c-4.17-1.46-0.42-1.19-2.76-2.82c2.53-0.89,4.1,0.77,3.28-1.27
			C125.62,321.39,126.71,323.32,126.71,323.32z M127.42,281.55c0.02,0,0.04,0.01,0.05,0.01c0.02,0.35,0.04,0.66,0.05,0.85
			C127.5,282.23,127.48,281.98,127.42,281.55z M127.76,278.17c-0.15,0.4-0.22,0.91-0.26,1.45c-0.88,0.02-1.76-0.21-1.68-0.54
			C126.38,279.33,126.97,278.59,127.76,278.17z M109.52,282.93c-0.28-0.54,0.23-0.64,0.76-0.64c0.01,0.24,0.05,0.53,0.17,0.91
			c0.08,0.03,0.22,0.07,0.3,0.1C110.27,283.19,109.83,283.07,109.52,282.93z"/>
		<path class="st0" d="M112.67,284.29c0.05,0.08,0.14,0.14,0.15,0.23c0.24-0.07,0.44-0.14,0.61-0.22c-0.26-0.1-0.52-0.2-0.76-0.29
			C112.67,284.1,112.67,284.2,112.67,284.29z"/>
		<path class="st0" d="M29.88,54.19l-0.09,0.03c0.11,0,0.23,0,0.39,0.05C30.06,54.25,29.99,54.21,29.88,54.19z"/>
		<polygon class="st0" points="133.4,230.79 132.76,230.85 133.34,231.11 		"/>
		<path class="st0" d="M46.72,42.97c0.21,0.09,0.44,0.15,0.68,0.13C47.25,43.03,47,43,46.72,42.97z"/>
		<path class="st0" d="M51.31,36.5l1.35-0.5C51.97,36.16,51.58,36.34,51.31,36.5z"/>
		<path class="st0" d="M55.52,31.89c-0.34-0.29-0.62-0.48-0.87-0.65c-0.01,0-0.01,0-0.02,0L55.52,31.89z"/>
		<path class="st0" d="M22,116.84c0.01,0.08,0.04,0.15,0.1,0.22C22.56,117.6,22.39,117.25,22,116.84z"/>
		<path class="st0" d="M21.54,89.29c0.34,0.42,0.68,0.84,0.86,1.21C22.74,90.1,22.9,89.76,21.54,89.29z"/>
		<path class="st0" d="M27.48,144.18c-0.03,0.01-0.01,0-0.04,0.01c0.02,0.05,0.03,0.1,0.04,0.15L27.48,144.18z"/>
		<path class="st0" d="M21.97,91.7c0.62-0.32,0.65-0.73,0.43-1.2C22.12,90.83,21.72,91.2,21.97,91.7z"/>
		<path class="st0" d="M69.2,8.53l0.22-0.23c-0.15-0.06-0.27-0.14-0.36-0.2L69.2,8.53z"/>
		<path class="st0" d="M69.07,8.09l-0.13-0.43C68.87,7.81,68.83,7.94,69.07,8.09z"/>
		<path class="st0" d="M68.65,6.76l0.28,0.9C69.05,7.44,69.25,7.2,68.65,6.76z"/>
		<path class="st0" d="M64.53,15.53l0.78,0.5C65.16,15.9,64.91,15.73,64.53,15.53z"/>
		<path class="st0" d="M63.63,17.9c0.46-0.43,2.42-0.45,2.29-1.47l-0.62-0.4C66.34,17.01,62.51,16.68,63.63,17.9z"/>
		<path class="st0" d="M48.76,21.44l1.63-1.4c-1.03-0.17-2.4-0.42-2.15-1.32C44.45,19.49,50.39,19.33,48.76,21.44z"/>
		<path class="st0" d="M44.39,26.14c0.16-1.17-1.23-0.71-1.67-1.04C43.14,26.14,43.24,26.4,44.39,26.14z"/>
		<path class="st0" d="M21.16,66.01l-2-1.14C19.05,65.8,19.95,65.28,21.16,66.01z"/>
		<path class="st0" d="M28.1,79.02l1.62-0.13l-1.76-1.22C28,78.12,28.05,78.57,28.1,79.02z"/>
		<polygon class="st0" points="10.96,77.34 10.82,76.85 11.01,78.59 		"/>
		<path class="st0" d="M9.87,160.21l2.45-1.47C11.6,158.37,8.64,159.55,9.87,160.21z"/>
		<path class="st0" d="M39.53,184.51c-0.15,1.48,0.57,2.73,1.65,1.62C40.44,185.68,40.06,184.33,39.53,184.51z"/>
		<polygon class="st0" points="109.79,224.86 108.76,224.45 109.72,225.39 		"/>
	</g>
	<g>
		<path class="st0" d="M176.62,345.08c-0.42-0.67-1.65-1.92-1.69-1.42l1.8,2.39L176.62,345.08z"/>
		<path class="st0" d="M171.09,342.65c0.65,1.36,1.98,3.58,4.03,5.42c-1.61-2.41-0.73-1.59-2.67-4.43c0.04-0.51,1.12,0.28,1.81,1.13
			c-0.42-0.65,0.86,0.1-0.24-1.42c-1.9-1.39-2.41-1.05-1.61,0.79C171.86,343.74,171.43,343.07,171.09,342.65z"/>
		<path class="st0" d="M141.63,364.27l0.42,0.08C141.87,364.26,141.73,364.24,141.63,364.27z"/>
		<path class="st0" d="M124.77,379.33c0.07-0.17-0.1-0.43-0.29-0.62C124.51,378.96,124.55,379.18,124.77,379.33z"/>
		<path class="st0" d="M119.72,379.91c0.13,0,0.2-0.02,0.3-0.03C119.77,379.75,119.6,379.71,119.72,379.91z"/>
		<path class="st0" d="M141.63,364.27l-1.09-0.24C141.2,364.75,141.27,364.32,141.63,364.27z"/>
		<path class="st0" d="M172.26,351.29c-0.01-0.19-0.12-0.46-0.29-0.79c0.01,0.16,0.01,0.31-0.01,0.44
			C172.06,351.05,172.15,351.16,172.26,351.29z"/>
		<path class="st0" d="M147.02,355.56l0.13-0.13c-0.2-0.28-0.45-0.61-0.73-0.97L147.02,355.56z"/>
		<path class="st0" d="M152.21,349.93c-0.2,0.04,1.5,1.91,2.22,2.76c-0.65-0.82-0.9-1.27-0.92-1.51
			C153.17,350.82,152.76,350.42,152.21,349.93z"/>
		<path class="st0" d="M164.07,344.89l-0.08-0.4C164.03,344.61,164.03,344.75,164.07,344.89z"/>
		<path class="st0" d="M142.72,359.01c-0.27-0.26-0.53-0.47-0.68-0.59C142.26,358.64,142.49,358.83,142.72,359.01z"/>
		<path class="st0" d="M41.98,323.53c0.19-0.02,0.29-0.03,0.45-0.04C42.17,323.46,41.99,323.47,41.98,323.53z"/>
		<path class="st0" d="M53.76,313.64l0.15,0.11c0.49-0.02,0.96-0.04,1.42-0.07L53.76,313.64z"/>
		<path class="st0" d="M112.53,382.94c0.03,0.01,0.03,0.01,0.06,0.01C112.5,382.61,112.47,382.73,112.53,382.94z"/>
		<path class="st0" d="M86.75,412.97c-0.48,1.76-0.84,2.77-1.25,3.75c-0.4,1.01-0.85,1.99-1.3,4.13c0.22-0.75,0.75-2.05,1.26-3.54
			C85.96,415.83,86.46,414.16,86.75,412.97z"/>
		<path class="st0" d="M171.89,351.18c-0.06,0.09-0.12,0.17-0.21,0.22C171.84,351.37,171.91,351.3,171.89,351.18z"/>
		<path class="st0" d="M84.2,420.85l-0.01,0.03l-0.08,0.42C84.14,421.11,84.16,421.01,84.2,420.85z"/>
		<path class="st0" d="M102.76,396.18c0.36,0.27,0.66,0.44,0.94,0.6C103.51,396.62,103.24,396.44,102.76,396.18z"/>
		<path class="st0" d="M113.53,389.47l-0.45,0C113.33,389.53,113.45,389.51,113.53,389.47z"/>
		<path class="st0" d="M101.34,403.3c-0.25,0-0.56-0.19-0.44,0.2c0.11,0.07,0.19,0.11,0.28,0.15
			C100.96,403.36,100.91,403.18,101.34,403.3z"/>
		<path class="st0" d="M97.11,408.31c0.17,0.1,0.31,0.16,0.47,0.24c0-0.08,0.02-0.17,0.03-0.25L97.11,408.31z"/>
		<path class="st0" d="M45.68,343.63c0.68-0.25,1.44-0.46,2.2-0.65C46.12,343.36,45.34,342.48,45.68,343.63z"/>
		<path class="st0" d="M171.3,350.25c0.4,0.49,0.58,0.77,0.6,0.93c0.04-0.07,0.05-0.16,0.07-0.24
			C171.72,350.64,171.48,350.38,171.3,350.25z"/>
		<path class="st0" d="M116.33,416.48l-0.95,0.53C115.75,416.95,116.09,416.75,116.33,416.48z"/>
		<path class="st0" d="M56.65,390.38l-0.36-0.15C56.26,390.35,56.35,390.41,56.65,390.38z"/>
		<path class="st0" d="M113.72,419.54c-0.8-0.44-1.32-0.63-1.7-0.69c0.13,0.16,0.22,0.3,0.42,0.51L113.72,419.54z"/>
		<path class="st0" d="M47.91,342.98l-0.03,0.01L47.91,342.98z"/>
		<path class="st0" d="M40.97,336.86c0.06,1.03,3.29,0.05,5.2,0.01c1.09,1.07-2.35,0.88-3.99,1.52c0.96,0.64,4.08,0.79,4.04,1.36
			c-0.54,0.12-0.72,0.26-1.42,0.22c2.73,0.41,0.48,2.33,3.9,2.75c-0.28,0.11-0.55,0.19-0.8,0.24c1.62-0.4,3.3-0.68,4.49-0.83
			c0.12,0.43,2.2,0.5,0.08,0.99c0.02-0.28-0.85-0.17-1.54-0.19l1,0.32c-3.02,0.9-1.16-0.47-3.45-0.12c1.14,0.76,3.85,1.41,3.09,2.24
			c-3,0.63-1.26-1.47-3.8-0.11l0.99-1.26c-4.64,1.57,0.23-0.71-4.75,0.85c-0.65,1.58,1.76,1.37,1.14,2.94
			c1.73,0.04,2.46-0.52,4.19-0.48c3.36,1.49-7.3,2.88-3.03,3.68c2.07,0.04,5.91-0.5,4.08,0.91l-3.46,0.25
			c-0.09,1.45,5.03-0.1,2.99,1.75c-1.38-0.01-1.32-0.87-1.68-0.59c-2.52,1.43,2.04,0.31,2.17,1.02l-2.98,0.71
			c0.77,1.38,3.26,2.57,4.12,4.06c-0.91,0.09-1.9,0-2.75,0.57c1.89,1.74,0.53,4.43-0.79,6.8l2.75,0.17
			c0.01,0.18-1.09,0.59-1.63,0.51c-0.8,0.99,1.64-0.33,2.74-0.19c0.28,0.39-1.35,0.91-2.19,0.81c2.48,0.87,5.56,2.72,3.18,4.79
			l-0.83-0.09c-0.76,1.36,5.57-0.06,3.43,1.54l-0.5-0.08c-0.26,1.33,0.36,2.5,0.62,3.68c0.28,1.18,0.21,2.38-1.47,3.81
			c3.76-0.67-0.99,2.8,4.16,1.53c-2.15,2.06-3.2,1.94-4.34,4.33c-0.08,0.58,3.41-0.17,4.13,0.29l-2.66,0.8l3.04,0.02l-3.04,1.4
			l0.86,0.38c0.09-0.28,1.04-0.86,1.82-1.05c1.48,0.55-1.18,2.79-2.53,3.23l2.9,1.48c-1.08,0.29-1.56,0.04-2.32-0.04
			c3.05,0.31-2.73,1.09,0.09,1.37c0.56-0.33,1.6-0.42,2.14-0.57c-1.43,1.03-1.05,2.24-0.08,2.91l-1.87,0.42
			c0.07,1.76,1.97,3.11,2.55,4.91c0.62-0.93,3.81-1.85,4.29-1.44l-2.7,1.16c1.83-0.25,0.86-0.9,3.2-0.94
			c-0.09,0.77-2.99,1.53-4.03,1.46l1.25,0.48c-0.81,0.33-1.31,0.3-2.39,0.61c1.84-0.27-2.28,2.38,0.87,1.81l-0.81,0.34
			c0.61,1.8,1.85,2.28,2.5,3.68c2.39-0.85,2.07-0.09,4.15-0.37c-0.36,1.33-1.77,3.2-1.09,4.4c1.52,0.44,2.1-0.51,3.66-0.65
			c-2.13,0.89-1.44,2.09-3.24,2.03c0.12,0.17,0.22,0.33,0.32,0.48l0.08,0.11l0.1,0.17c0.06,0.11,0.13,0.21,0.19,0.31
			c0.24,0.39,0.52,0.79,0.84,1.16c0.64,0.73,1.48,1.48,2.89,2.41c0.66-0.85,0.88-1.4,1.62-1.65c0.52,0.26-0.35,1.66-1.3,2.26
			l-0.26,0c1.07,0.31,1.42,1.12,1.48,2.28c0.06,1.16-0.15,2.69-0.3,4.28c-0.15,1.57-0.24,3.21,0.02,4.34
			c0.26,1.11,0.84,1.72,1.93,1.19l-0.22,0.09c0.98,0.12,1.92,0.14,2.81,0.08c0.16,0.82-0.17,1.14-0.61,1.54
			c-0.43,0.41-0.98,0.87-1.17,2.17c1.85-0.6,2.25,0.61,2.62,2.13c0.35,1.48,0.65,3.23,1.81,2.68c-1.09,5.7-0.07,7.6,0.98,8.86
			c1.09,1.33,2.18,1.93,2.25,7.21l0.37-3c0.76-2.08,0.15,2.49,0.32,3.73c0.28-2.35,0.01-3.38,0.44-4.51c0.15,0.11,0.3,0.24,0.44,0.4
			c0.15,0.11,0.3,0.16,0.44,0.28c1.92-3.08,3.61-4.07,5.61-5.04c1.97-0.92,4.26-1.84,6.62-3.79c0.95-0.86,0.69-3.87,0.51-6.3
			c-0.15-2.47-0.28-4.27,1.26-3.15c0.15,1.41,0.27,2.85,0.38,4.31c1.13-4.29,2.66-6.23,4.33-8.1c1.64-1.85,3.44-3.81,3.92-6.8
			c0.28,0.74,0.87,1.44,0.55,1.81c1.03,0.44,1.71-0.35,1.93-1.35c0.22-1.01-0.05-2.19-0.7-2.78c0.61-0.44,1.3,0.93,2.28,1.15
			c0.21,0,0.36-0.07,0.46-0.17c0.07-0.06,0.09-0.15,0.08-0.27c-0.02-0.24-0.15-0.57-0.27-0.88c-0.23-0.62-0.4-1.15,0.52-0.58
			c0.3,0.18,0.43,0.57,0.49,0.76c-0.56-0.96,1.34-1.18-0.8-2.5c1.58-0.03,0.43-2.23,2.08-1.91c-1.78-2.21,2.16-0.49-0.73-3.17
			c3.05,2.69,3.67,0.75,2.65-0.99c0.79,0.97,1.34,0.4,2.47,1.7c0.44-0.6,0.31-1.61-1.36-2.88c4.58,2.14-1.16-4.66,4.06-1.16
			c-0.21-3.11,0.05-5.62,0.66-7.75c2.99,2.74-1.16,1.93,2.1,4.68c-0.01-2.52-1.9-5.65,0.08-6.41c0.74,0.01,1.13,1.38,1.54,1.96
			c0.01-2.52,2.72-2.47,2.2-5.2c0.28,0.26,0.46,0.67,0.58,1c0.12-0.33,0.96-0.17-0.44-1.38l0.16,0.58c-2.35-1.4-3.27-4.73-4.27-5.73
			c3.54,3.97,2.1-0.35,6.45,4.81c-0.11-0.4-0.57-1.19-1.52-1.98c0.48,0,1.09,0.41,1.9,1.6c0.06-1.55-1.67-2.56-0.91-3.33
			c0.66,0.61,0.76,1,1.46,1.79c-0.92-1.57-1.83-3.16-0.65-3.32c0.36,0.4,0.95,0.8,0.75,0.99c0.86-1.33-1.6-5.11,0.81-5.24
			c2.5,3.02,1.33,0.44,3.86,2.66l-0.1-1.36l-1.45-0.84c0.6-0.55-0.7-2.75,0.58-2.5l0.6,1.39l0.58-1.54l-1.52-0.25
			c-0.7-1.78-3.16-2.85-1.73-3c0.1,0.4,0.59-0.57,2.32,0.48c0,0,0,0,0,0.01c-0.5-1.03-1.03-2.1-0.02-1.97
			c0.89,0.63,2.61,2.65,3.2,3.07c-1.77-2.22,0.74-1.92-1.07-4.34c0.39,0.61,1.66,1.83,1.96,2.04l-1.42-1.82
			c0.79,0.23,1.08,0.44,2.06,1.45c1.09-0.53-3.33-2.69-1.07-2.39c0.06,0.2,0.34,0.4,0.44,0.8c1.63-0.31,0.77-2.89,2.44-3
			c2.68,2.09-0.16,1.36,2.18,3.04c0.79-1.71-0.33-5.48,1.45-6.16l-0.49-0.03c-3.24-3.51,2.59,0.73,1.6-1.47
			c0.1,0.4,1.69,2.06,1.35,1.64c1.38-0.3,0.85-2.55,1.07-4.88l0.71,1.02c1.27,0.28,1.75-0.85,2.68-0.99
			c-0.71-1.02-0.26-1.19-1.7-2.27c6.56,3.32,0.52-5.81,6.09-3.09c-0.17,0.18,0.33,1.18,0.47,1.04l0.47-2.03
			c-1.55-1.39-1.04-0.74-2.44-1.64c-0.7-1.04-1.01-2.07-0.69-2.38c0.39,1.54,2.33,2.39,3.39,2.98c-0.48-0.42-0.89-1-1.36-1.45
			c3.24,2.01-2.8-3.11-0.16-2.2l0.71,0.83c-0.05-0.73-0.74-2.07-0.16-2.2c1.82,1.59,0.42,1.16,1.77,2.61
			c0.41-0.59-2.15-4.27-0.02-2.98c0.24,0.69-0.07,1,0.18,1.69c2.46,1.55,2.03,0.98,2.71,0.94l-0.08-0.01l1.76,0.1l-0.75-0.34
			c-3.69-5.15,0.52-2.08-1.44-5.88c1.83,3.63,1.41,1.76,3.22,3.8c0.74,0.34,1.66,0.64,2.09,1.28c-1.1-1.99,1.87,0.61,0.24-2.28
			c0.63,0.61,0.5-0.35,1.92,1.34c0.06-1.01-1.17-0.99-1.88-1.84c-1.23-2.97,4.43,0.84,2.81-3.28c-0.12-2.2-1.94-4.55-1.98-6.53
			c1.28,0.73,1.9,2.6,1.9,2.6c1.4,0.46,1.63-0.08,1.44-1.27c0.42,0.66,0.96,1.04,1.78,1.63c0.24-0.53-1.89-2.6-0.49-2.12
			c0.57,0.8,1.51,2.06,1.98,2.96c-0.08-1.02-0.72-2.65-0.77-3.68c1.16,1.01,1.27,1.98,1.77,2.87c0.08-1,0.48-2.31-0.98-4.25
			l-0.93-0.32c0.12-0.27,1.5,1.45,1.65,1.91c0.81,1.83-1.24-0.01-1.86-0.63l-0.03-0.73c-3.83-3.48-0.84,1.88-1.74,2.29l-2.24-3.02
			l1.38,2.94c-0.81-0.58-2.33-2.02-2.37-2.75c-1.75-0.9,0.46,1.39-1.37,0.27c-0.27-0.19-0.37-0.34-0.42-0.49l0.27,1.27
			c-0.44-0.67-1.87-1.87-1.21-1.75c-2.34-0.77,0.5,3.37-1.76,1.6l-0.08-0.24c-0.35,2.06,1.75,2.12,3.04,5.33l-5.24-4.39l1.76,2.12
			c-0.19,0.04-0.58,0.12-1.29-0.72c0.82,1.81,0.9,0.8,1.84,2.35c-2.32-1.27-0.85,2.4-3.98-0.65c1.22,1.72,1.67,0.63,2.04,2.29
			c-3.41-3.25-0.18,1.28-2.21,0.23c-1.5-1.92-0.1-1.48-2.14-2.53c2.5,3.29-1.68,0.36-1.61,1.37c2.23,2.39-0.06,1.94-0.08,3.46
			c-0.72-0.85-2.69,0.1-4.22-0.06l-0.36-0.41c2.16,2.51,0.99,2.77,0.94,3.78c-1.36-1.44-1.81-2.09-2.13-3.01l-0.49,0.5
			c0.62,0.87,0.85,1.43,0.79,2.01l-1.6-1.89c-0.58,0.75,0.68,3.39-1.33,3.05c1.57,1.69,5.18,3.91,5.36,5.89
			c-0.91-0.85-2.44-2.34-2.56-2.94c0.04,0.19,0.45,1.01-0.08,0.79l-1.11-1.85c-1.03-0.27,1.03,1.45,0.58,1.62
			c-1.24-1.27-1.12-0.68-2.07-1.72c-0.04-0.2,0.79,0.25,0.42-0.36c-0.57,0.12-1.74-0.21-2.82-1.03c0.74,0.69,1.68,1.7,1.59,2.12
			c-0.57,0.75-1.73-1.29-2.76-1.56c0.71,1.04-0.62,0.55,1.25,2.45c-0.2,0.18-1.11-0.66-1.69-1.09c0.48,1.17-1.37,1.83,1.02,3.45
			l0.22,0.04c0.02,0.06,0,0.08,0.03,0.14l0,0l0,0c0.75,2.97-3.39,1.26-3.68,3.19l-0.63-0.63c0.07,1.38-1.04,1.91-0.14,3.72
			c-0.2,0.19-1.62-0.67-2.29-1.49c-0.03,0.98,0.63,1.73-1.14,1.45c-0.61-1.6-1.16-0.78-0.3-1.32c-1.2,0.13-2.37-0.71-1.32,1.71
			c-1.4-1.83-2.55-1.49-2.37-0.69l1.62,0.66c-0.11,0.59-0.56,0.76-1,0.95l-1.99-2.25c-3.96-1.14,2.08,6.78-3.34,3.61
			c1.17,1.81,1.79,0.27,3.25,2.28c-0.9,0.35-4.64-1.94-4.84-1.74c-2.03-0.26,2.4,3.83,0.72,3.97c0.89,0.61,3.06,2.46,3.16,3.83
			c-0.89,0.37-4-2.28-4.25-3.27c0.08-0.22,0.4-0.06,0.65,0.2c-0.09-0.47-0.17-1.06-1.25-1.6l0.7,0.82
			c-1.09-0.43-1.84,0.53-2.92-0.87c0.28,1.18,1.08,1.4,1.82,1.42c-1.9-0.23-1.25,1.25-2.8,1.4c0.56,0.26,1.59,0.99,1.46,1.12
			c-2.12,0.35,0.98,1.93,0.54,3.1c-1.64-0.62-2.69-2.81-2.48-1.03c-1.29-0.22-2.19-1.81-2.63-2.61c0.79,2.18-2.34,0.55-3.04,0.74
			l-0.25-1c0.15,0.59-0.05,0.79-0.24,0.99l1.79,1.21c-0.5-0.01-0.69,0.19-1.34-0.41c0.8,1.19,2.8,2.21,3.75,3.99
			c-1.1-0.41-0.04,1.76-2.24-0.04c1.64-0.36-2.21-1.81-1.75-2.97c0.1,0.39-0.1,0.59-0.6,0.58c-0.27-0.18-0.4-0.43-0.46-0.61
			c-2.77-0.73,1.96,2.61,1,3.58c-1.07-1.2-2.46-1.8-2.35-1.4c0.39-0.39,2.15,1.59,2.72,2.79c-1.51-0.18,0.05,1.33-0.36,1.57l0.78,0
			c1.07,1.2,0.62,1.39,0.59,2.17c-0.96-0.79-0.27-0.98-0.82-1.19c1.64,2.38-3.18-0.81-2.41,1.16c-1.1-0.4-2.27-1.97-3.07-2.17
			c0.84,2.17-2.41-0.6-1.87,1.38c1.82,1.18,1.46,0.79,2.51,2.77l0.08-2.37l1.55,2.95c0.38-0.39-0.24-1.77,0.26-1.77
			c0.93,1.58,0.57,1.18,2.08,2.17c-2.91-1.59,0.42,2.36-1.79,1.57l-3.96-3.54c-2.65-0.58,0.5,3.56-1.63,3.95l1.06,0.2
			c1.44,1.56-0.47,0.98-0.19,1.96c-1.3-1.21-2.02-1.37-3.01-1.92c1.01,0.84-0.92,0.86,1.66,3.31l-2.26-0.96
			c-1.62,0.42,2.81,4.5,1.49,5.1c-1.21-1.56-2.55-1.93-3.02-3.5c-0.3,0.32-0.81,0.41,0.12,1.22c-1.01-0.53,1.02,2.49-0.53,1.7
			c0.47,0.65,1.85,1.9,1.41,2.18c-0.31-0.19-0.67-0.57-0.67-0.57c0.67,0.57,0.4,1.36,2.18,2.31c-5.11-2.57-2.13,3.14-6.53,0.97
			c-0.16,1.12-0.47,2.37-0.93,3.12c-0.37-0.38-0.68-0.57-0.43-0.58c-1.02-0.07-0.16,0.89,0.67,1.85c0.82,0.96,1.62,1.93,0.58,1.74
			c-2.42-1.57-0.82-1.44-1.83-1.93c-2.23-1.89-2.17-1.64-1.98-1.09c0.21,0.53,0.5,1.45-0.74,0.27l-0.16-0.35
			c-0.74-0.66-0.47-0.12-0.17,0.69c0.31,0.8,0.65,1.88,0.32,1.95c0,0-0.26-0.5-0.47-0.82c1.35,3.06,1.04,4.97,0.82,6.57
			c-0.73-2.72-0.26-1.59-1.28-4.02c-0.02,0.29,0.36,1.3,0.73,2.38c0.37,1.08,0.73,2.24,0.58,2.95c-0.64-1.19-1.34-2.05-2.15-4.98
			l0.26-0.54c-0.65-1.73-0.7-1.63-0.67-1.1c0.04,0.53,0.14,1.49-0.02,1.24l-0.39-1.74c-0.2,0.97,0.57,5.63-0.14,6.11l0.24,1.38
			c0.09,2.66-0.1,2.12-0.26,1.36c-0.17-0.74-0.32-1.7-0.37,0.43l-0.45-5.08c-0.05,0.74-0.15,2.24-0.35,3.81
			c-0.19,1.57-0.48,3.23-0.74,4.09c0.38-4.66,0.75-7.28,0.83-9.86c-0.15,0.15-0.46,1-0.61,3.98c0.09-0.66,0.17-2.15,0.24-1.37
			c-0.18,4.67-0.73,7.55-1.27,8.14c0.32-5.09,0.21-6.13,0.05-6.41c-0.16-0.28-0.48,0.34-0.36-1.7c0.04-0.69,0.14-1.7,0.32-3.16
			c-0.47,2.17-0.59,1.2-0.55-0.03c0.03-1.27,0.23-2.82,0.03-2.76c-2.18,8.55-0.16,0.04-2.58,8.4c-0.31,0.22-0.33-0.05-0.17-0.6
			c0.36-1.91,0.79-3.72,1.26-5.42c0.77-2.3,0.7-1.48,1.3-3.22c0.05-0.43,0.34-1.24,0.71-2.2c0.23-0.59,0.36-0.92,1.19-3.07
			c-1.04,2.62-1.54,3.62-1.17,2.57c-0.46,1.09-0.9,2.24-1.31,3.43c-0.91,1.64-0.34,0,0.3-1.46c0.63-1.5,1.33-2.83,0.38-1.32
			c0.37-0.61,0.74-1.24,1.09-1.89c-0.33,0.55-0.35,0.47-0.67,0.8c-0.32,0.33-0.94,1.04-2.58,2.88c0.43-0.63,1.5-2,1.81-2.29
			c0.17-0.46-0.77,0.34-1.64,0.65c-0.85,0.35-1.61,0.24-0.54-0.73l1.18-0.68c-0.36,0.15-2.29,1.1-1.15,0.29
			c0.5-0.25,1.21-0.6,1.26-0.67c-0.42,0.19-2.22,0.8-1.6,0.22c0.49-0.13,0.98-0.27,1.46-0.43c0.17-0.17,0.24-0.29,0.23-0.37
			c-0.06-0.2-0.19-0.36-0.39-0.49c-0.39-0.25-1.03-0.38-1.73-0.47c-1.42-0.18-3.13-0.22-3.85-0.8c3.71-1.4,4.39-3.22,4.73-4.12
			l0.54-0.17c-0.28-2.18-4.31-2.33-6.47-3.73c1.82-1.3,1.89-2.44,1.72-3.6c-0.15-1.16-0.56-2.34,0.27-3.66
			c-0.59,0.51-2.95,0.92-3.44,0.7c0.62-0.7-3.02-0.4,0.46-1.44l-0.01,0.18c3.28-1.43,2.08-2.05,1.94-2.8l-4.57,1.31
			c3-1.99,2.03-3.03,0.99-3.95c-1.03-0.92-2.13-1.73,0.69-3.12c-1.28-0.12-1.43-0.69-2.71-0.82l2.46-0.68
			c0.27-1.45,0.41-2.16-0.61-3.57l1.84-0.17c-0.08-0.92-7.39,0.83-7.77,0.04l3.6-1.24c-0.5-1.54,2.33-3.94-1.39-4.63
			c0.55-0.11,1.62-0.34,1.84-0.12c-0.09-0.76,1.79-3.44-3.21-1.93c3.3-0.83-0.08-1.68-1.75-2.19l2.47-0.45
			c-3.29,0.03-4.14,0.2-5.24-0.61c0.26-0.31,1.91-0.66,1.36-0.2c1.1-1.09-2.45-0.09-1.37-1.36l1.64,0c0-0.86-0.82-0.61-2.74-0.65
			c-1.1-0.3,0.27-1.71,2.45-2.31c-1.37,0.19-3.28,0.13-2.75-0.5c0.82-0.25,1.38-0.18,1.66-0.15c1.35-1.72-3.29-1.45-1.07-2.9
			c0.81-0.19,1.2-0.33,1.43-0.46c0.16,1.1,0.2,2.01,0,1.97c2.26-0.48,2.48-1.44,5.75-1.4c-1.84-0.33-5.79-0.77-4.9-1.85
			c0.21-0.09,0.42-0.17,0.76-0.27l0.27,0.04c0.19-0.24-0.06-0.38-0.47-0.47c0.32-0.35,0.56-0.58,0.54-0.84
			c1.86-0.47,0.81-1.2,0.81-1.65c-2.48,0.52-2.19-0.14-4.14,0.8c0.17-0.1,0.31,0.03,0.48,0.3c0.09,0.05,0.14,0.12,0.29,0.14
			c-0.07,0-0.14,0.01-0.22,0.01c0.13,0.27,0.26,0.64,0.38,1.06c-1.33-0.1-2.46-0.26-1.18-1.01c-1.64,0.08-3.33,0.15-4.13,0.16
			c3.35-1.28,4.98-2.79,7.1-3.35c-1.63-1.08-1.47-2.98-6.3-3.02c-0.67-0.28,1.26-0.68,1.98-0.95c0.51,0.14,0.48,0.42,1.18,0.42
			c-1.34-0.56-0.87-2.19-4.17-1.83c1.31-1.22,3.11,0.05,2.34-1.2l1.03,0.02c2.41-1.73,0.17-2.45-1.91-3.27
			c-2.07-0.81-3.97-1.73-0.82-3.67c-0.38,0.26-0.56,0.39-1.1,0.51c1.23-1.88,0.35-3.5-0.36-5.17c-0.69-1.66-1.2-3.36,1.02-5.27
			c0.86-1.04-1.26-0.91-2.92-1.33l2.68-0.48l-3.22-0.67c-2.42-1.2,6.37-3.04,1.91-4.41l-1.81,0.39c0.29-0.67-1.23-1.93,0.87-2
			c-0.34-0.04-1.92-0.05-0.98-0.38l1.42-0.13l-2.55-1.38c0.93-1.29,5.64-0.23,5.78-2c-0.6-0.61-4.27-1.58-5.2-1.27
			c-0.05,0.27-0.83,0.74-2.25,0.85l-0.79-0.56c-4.19,0.17-8.51-0.05-11.31,1.69l2.64,0.9l-2,0.49l-0.2-0.9
			c-1.87,0.65-0.15,0.86,1.03,1.14c-1.07,0.17-1.81,0.37-2.2,0.62l4.07,0.75c-1.62,0.26-3.28-0.22-4.13,0.56
			c1.89,0.35,3.63-0.76,4.91-0.04c-1.86,0.66-3.42,0.64-1.75,1.11c-1.07,0.17-1.76,0.1-2.26-0.1c1.33,0.43,0.66,1.38,2.9,1.46
			c-2.31,0.74,0.77,1.75-3.18,2.06c0.96,0.08,3.2,0.66,3.41,1.13c-4.82-0.44-0.09,1.87-5.18,2.14c4.32,0.24,2.13,2.23,4.61,3.15
			c-0.34-0.03-1.04-0.08-0.83-0.21c-0.29,0.7-1.55,1.04-2.29,1.56c3.51-0.32,4.44,0.62,6.67,0.91c-3.28,1.21-4.17,0-7.39,0.64
			c2.83-0.38,3.01,1.07,5.34,0.51c-2.01,0.88-0.95,0.66-3.81,1.34c4.39-0.44,0.82,0.49,3.57,0.66c-2.04,1.18-4.07,0.76-2.61,1.58
			C42.63,337.55,40.97,336.86,40.97,336.86z M52.39,358.97c-0.02,0-0.04,0.01-0.05,0.01c-0.1-0.19-0.18-0.34-0.24-0.45
			C52.16,358.63,52.24,358.76,52.39,358.97z M52.82,360.9c0.05-0.26,0.01-0.55-0.07-0.86c0.84-0.24,1.74-0.35,1.73-0.15
			C53.88,359.9,53.48,360.46,52.82,360.9z M69.2,353.44c0.41,0.22-0.06,0.41-0.56,0.55c-0.07-0.13-0.19-0.27-0.4-0.45
			c-0.09,0.01-0.22,0.02-0.31,0.03C68.42,353.5,68.87,353.45,69.2,353.44z"/>
		<path class="st0" d="M65.84,353.55c-0.06-0.03-0.17-0.03-0.21-0.09c-0.21,0.1-0.38,0.2-0.52,0.28c0.27-0.02,0.55-0.03,0.8-0.05
			C65.89,353.65,65.87,353.59,65.84,353.55z"/>
		<path class="st0" d="M142.12,364.36l-0.07-0.01c0.09,0.05,0.19,0.1,0.32,0.19C142.26,364.48,142.2,364.42,142.12,364.36z"/>
		<polygon class="st0" points="54.81,388.62 55.42,388.43 54.84,388.42 		"/>
		<path class="st0" d="M155.78,363.1c0.17,0.15,0.36,0.28,0.55,0.37C156.21,363.35,156.01,363.23,155.78,363.1z"/>
		<path class="st0" d="M159.45,360.34l1.09,0.21C159.98,360.37,159.66,360.33,159.45,360.34z"/>
		<path class="st0" d="M162.85,358.84c-0.27-0.35-0.49-0.6-0.7-0.83c-0.01,0-0.01,0-0.02-0.01L162.85,358.84z"/>
		<path class="st0" d="M126.26,400.62c-0.02,0.04-0.03,0.1-0.01,0.18C126.41,401.36,126.41,401.07,126.26,400.62z"/>
		<path class="st0" d="M133.14,384.46c0.21,0.44,0.42,0.88,0.5,1.21C133.99,385.59,134.18,385.45,133.14,384.46z"/>
		<path class="st0" d="M116.43,416.42c-0.02-0.01-0.01-0.01-0.03-0.03c-0.02,0.04-0.05,0.06-0.07,0.09L116.43,416.42z"/>
		<path class="st0" d="M133.08,386.2c0.57,0.13,0.66-0.12,0.56-0.53C133.35,385.73,132.97,385.76,133.08,386.2z"/>
		<path class="st0" d="M174.72,349.37l0.19-0.04c-0.11-0.12-0.2-0.23-0.26-0.31L174.72,349.37z"/>
		<path class="st0" d="M174.66,349.02l-0.06-0.35C174.53,348.73,174.49,348.8,174.66,349.02z"/>
		<path class="st0" d="M174.46,347.94l0.14,0.74C174.7,348.59,174.88,348.53,174.46,347.94z"/>
		<path class="st0" d="M170.52,351.63l0.58,0.71C170.99,352.18,170.8,351.95,170.52,351.63z"/>
		<path class="st0" d="M169.67,352.78c0.39-0.08,1.94,0.87,1.9,0.12l-0.46-0.57C171.86,353.49,168.85,351.42,169.67,352.78z"/>
		<path class="st0" d="M157.6,348.52l1.38-0.28c-0.82-0.57-1.92-1.34-1.68-1.88C154.19,345.26,159.01,347.73,157.6,348.52z"/>
		<path class="st0" d="M153.93,350.05c0.15-0.77-0.98-1.02-1.34-1.45C152.91,349.53,152.99,349.76,153.93,350.05z"/>
		<path class="st0" d="M134.79,368.9l-1.6-1.66C133.08,367.83,133.83,367.87,134.79,368.9z"/>
		<polygon class="st0" points="139.79,380.85 141.14,381.5 139.78,379.87 		"/>
		<polygon class="st0" points="125.86,371.67 125.77,371.28 125.8,372.46 		"/>
		<path class="st0" d="M96.15,405.97l2.26,1.71C98.24,407.1,95.85,404.99,96.15,405.97z"/>
		<path class="st0" d="M90,417.96c-0.32-1.85-0.56-2.99-0.49-0.88C89.66,417.21,89.98,418.56,90,417.96z"/>
		<polygon class="st0" points="78.05,386.93 79.06,387 78.1,386.56 		"/>
	</g>
</g>
<g id="Layer_2">
</g>
</svg>
