<?xml version="1.0" encoding="utf-8"?>
<!-- Generator: Adobe Illustrator 24.0.3, SVG Export Plug-In . SVG Version: 6.00 Build 0)  -->
<svg version="1.2" baseProfile="tiny" id="Layer_1" xmlns="http://www.w3.org/2000/svg" xmlns:xlink="http://www.w3.org/1999/xlink"
	 x="0px" y="0px" viewBox="0 0 553 380.2" xml:space="preserve">
<g id="Q8Skiw.tif">
	<g>
		<path fill="#FFFFFF" d="M281.9,176.5L50.7,279.3c-3.2-1.4-6-3.6-9-5.4c0-56.3,0-112.5,0-168.8c2.8-1.8,5.5-4,8.6-5.3
			c74.9-31.9,149.9-63.6,224.8-95.5c4.9-2.1,8.9-2.1,13.8,0c74.9,31.9,149.8,63.7,224.8,95.5c8.2,3.5,8.5,4,8.5,12.8
			c0,51.7-0.1,103.5,0.1,155.2c0,5.8-2.1,8.7-7.3,10.9L281.9,176.5z M274.7,20.2c-2,0.7-3.1,1-4.3,1.5
			c-70.3,29.9-140.7,59.8-211,89.6c-2.8,1.2-3.6,2.5-3.6,5.5c0.1,46.4,0.1,92.8,0.1,139.2c0,1.2,0.1,2.3,0.2,3.7
			c1.2-0.4,2-0.6,2.7-0.9c70.9-30.1,141.8-60.2,212.8-90.2c2.7-1.1,3.3-2.7,3.3-5.3c-0.1-7.8-0.1-15.6,0-23.4c0-3.8,0.9-7.2,5.1-8.5
			c5-1.6,9.2,1.8,9.3,7.9c0.2,7.7,0.3,15.3,0,23c-0.1,3.7,1,5.4,4.5,6.9c65.5,27.7,131,55.5,196.4,83.3c5.8,2.5,11.7,4.9,17.8,7.5
			c0.1-1.3,0.2-2.1,0.2-2.8c0-46.9,0-93.8,0.1-140.7c0-2.9-1.1-4-3.5-5c-70.5-29.9-141-59.8-211.5-89.7c-1.1-0.5-2.3-0.7-3.9-1.2
			c0,2.2,0,3.9,0,5.6c0,22.3,0,44.7,0,67c0,1.9-0.2,3.8-0.6,5.5c-0.8,3.5-3.6,5.8-6.8,5.1c-2.4-0.5-4.8-2.9-6.4-5.1
			c-1-1.4-0.7-3.9-0.7-5.9c0-21.1,0-42.2,0-63.3C274.7,26.6,274.7,23.8,274.7,20.2z"/>
		<path fill="#FFFFFF" d="M338.1,252.2c0,5.6-0.1,11.3,0,16.9c0.1,4.2-1.6,7.1-5.6,8.8c-15.5,6.5-31,13.3-46.6,19.6
			c-2.4,1-6,0.9-8.4-0.1c-15.3-6.2-30.5-12.8-45.7-19.2c-4.3-1.8-6.2-4.7-6.1-9.4c0.1-11.2,0.1-22.5,0-33.8
			c-0.1-4.7,1.9-7.5,6.2-9.3c15.1-6.3,30.1-12.9,45.3-19c2.7-1.1,6.6-1.1,9.4,0c15.3,6.2,30.4,12.9,45.7,19.2c4.2,1.7,6,4.6,5.9,9
			C338,240.6,338.1,246.4,338.1,252.2z M312.6,233c-10.2-4.3-19.4-8.3-28.7-12.2c-1-0.4-2.6-0.6-3.6-0.1c-9.5,3.9-18.9,8-29,12.3
			c10.1,4.3,19.5,8.4,28.9,12.3c1.1,0.5,2.8,0.2,3.9-0.3C293.4,241.2,302.5,237.3,312.6,233z M240.1,243.8c0,6.8,0.1,12.7-0.1,18.6
			c-0.1,2.8,0.8,4.2,3.4,5.2c7.7,3.1,15.2,6.4,22.8,9.6c2.6,1.1,5.3,2.2,8.4,3.5c0-7.1,0.1-13.3-0.1-19.5c0-1.2-1.1-3-2.1-3.4
			C262,253,251.5,248.6,240.1,243.8z M323.8,243.8c-11.5,4.9-22.1,9.4-32.7,14c-0.8,0.3-1.8,1.5-1.8,2.3c-0.1,6.7-0.1,13.3-0.1,20.6
			c11.4-4.8,22.1-9.3,32.8-14c0.8-0.4,1.7-1.9,1.7-2.9C323.9,257.4,323.8,251.1,323.8,243.8z"/>
		<path fill="#FFFFFF" d="M429.1,152.9c0,14.4,0,28.7,0,43.1c0,9.6-4.2,12.3-13.1,8.6C381.7,190,347.4,175.4,313,161
			c-5.1-2.1-7-5.3-7-10.7c0.2-29.2,0.1-58.4,0.1-87.7c0-9.4,4.1-12.1,12.8-8.4c34.3,14.5,68.6,29.1,103,43.5c5.2,2.2,7.4,5.4,7.3,11
			C428.9,123.5,429.1,138.2,429.1,152.9z M320.3,70.3c0,25.7,0.1,50.6-0.1,75.4c0,3,1.8,3.5,3.8,4.4c28.6,12.1,57.1,24.3,85.7,36.4
			c1.4,0.6,2.9,1,4.4,1.5c0.2-0.8,0.5-1.2,0.5-1.6c0-24.4,0-48.8,0.1-73.1c0-2.9-1.7-3.6-3.8-4.5c-15.5-6.6-31-13.1-46.5-19.7
			C350,82.9,335.5,76.7,320.3,70.3z"/>
		<path fill="#FFFFFF" d="M185.6,136.7c0,14.8-0.1,29.7,0.1,44.5c0.1,5.2-1.9,8.3-6.9,10.3c-32.8,13.2-65.6,26.6-98.4,39.9
			c-8.1,3.3-12.3,0.3-12.3-8.4c0-29.4,0.1-58.7-0.1-88.1c0-4.9,1.9-7.8,6.4-9.7c33-13.9,66-28,99.1-41.9c7.8-3.3,12.1-0.5,12.1,8
			C185.7,106.4,185.6,121.6,185.6,136.7z M82.2,215c1.4-0.5,2.1-0.6,2.8-0.9c27.7-11.3,55.5-22.6,83.2-33.7c2.9-1.2,3.1-2.9,3.1-5.4
			c0-23.6,0-47.2,0-70.8c0-1.3-0.2-2.6-0.3-3.7c-0.6-0.1-0.8-0.2-0.9-0.2c-28.6,12.1-57.2,24.1-85.7,36.3c-1,0.4-2.1,2.3-2.1,3.5
			C82.2,164.9,82.2,189.6,82.2,215z"/>
		<path fill="#FFFFFF" d="M436.1,162.2c0-14.7,0-29.4,0-44.1c0-9.6,4.3-12.4,13.1-8.7c13.2,5.6,26.4,11.3,39.6,16.8
			c4.7,1.9,6.8,5,6.8,10c-0.1,29.5,0,59.1-0.1,88.6c0,8.7-4.5,11.6-12.5,8.2c-13.4-5.6-26.6-11.5-40.1-16.9c-5.1-2.1-7.1-5.4-7-10.8
			C436.2,191,436.1,176.6,436.1,162.2z M450.6,125.6c0,2.4,0,4,0,5.7c0,20.8,0,41.6,0,62.3c0,10.2,0,10.2,9.5,14.2
			c6.8,2.9,13.6,5.7,21,8.8c0-25.8,0-50.8-0.1-75.7c0-1-0.7-2.6-1.5-3C470.1,133.8,460.7,129.8,450.6,125.6z"/>
		<path fill="#FFFFFF" d="M197.3,97.7c0-6.1,0.1-12.2,0-18.3c-0.1-4.3,1.6-7.1,5.6-8.7c16.5-6.9,33-14,49.5-20.9
			c6.6-2.8,11.4,0.2,11.5,7.3c0.2,12.5,0.1,25,0.1,37.4c0,3.8-1.8,6.5-5.4,8c-16.8,7.1-33.5,14.3-50.3,21.3
			c-6.2,2.6-10.6-0.2-10.9-6.9C197.1,110.5,197.3,104.1,197.3,97.7C197.3,97.7,197.3,97.7,197.3,97.7z M249.4,66.5
			c-12.5,5.3-24.1,10.2-35.7,15.2c-1,0.4-2.1,2-2.1,3c-0.2,7.2-0.1,14.3-0.1,22.2c12.5-5.3,24.5-10.4,36.4-15.6
			c0.7-0.3,1.4-1.7,1.4-2.6C249.4,81.6,249.4,74.4,249.4,66.5z"/>
		<path fill="#FFFFFF" d="M197.3,156.8c0-5,0-10,0-15c0-3.7,1.7-6.2,5.1-7.6c16.8-7.1,33.5-14.3,50.3-21.3c6.2-2.6,11,0.4,11.2,7.2
			c0.3,10,0.1,20,0,29.9c0,3.6-1.8,6.1-5.2,7.6c-16.9,7.1-33.8,14.4-50.7,21.5c-5.9,2.5-10.3-0.4-10.5-6.8
			C197.1,167.1,197.3,161.9,197.3,156.8C197.3,156.8,197.3,156.8,197.3,156.8z M249.4,129.7c-12.6,5.4-24.5,10.4-36.3,15.5
			c-0.7,0.3-1.4,1.3-1.5,2c-0.1,4.7-0.1,9.5-0.1,14.9c12.6-5.3,24.3-10.3,36-15.4c0.8-0.3,1.8-1.5,1.8-2.3
			C249.5,139.8,249.4,135.2,249.4,129.7z"/>
	</g>
</g>
<g>
</g>
<g>
</g>
<g>
</g>
<g>
</g>
<g>
</g>
<g>
</g>
</svg>
