<?xml version="1.0" encoding="utf-8"?>
<!-- Generator: Adobe Illustrator 25.2.1, SVG Export Plug-In . SVG Version: 6.00 Build 0)  -->
<svg version="1.1" id="Layer_1" xmlns="http://www.w3.org/2000/svg" xmlns:xlink="http://www.w3.org/1999/xlink" x="0px" y="0px"
	 viewBox="0 0 92 92" style="enable-background:new 0 0 92 92;" xml:space="preserve">
<style type="text/css">
	.st0{fill:#FFFFFF;}
</style>
<path class="st0" d="M88.1,62.6c0-0.1,0-0.2-0.1-0.3c0-0.1-0.1-0.2-0.2-0.3c0,0,0-0.1-0.1-0.1l-7.7-7.9V41.8c0-0.1,0-0.1,0-0.2
	c0-0.1,0-0.2-0.1-0.3c0-0.1-0.1-0.2-0.2-0.3c0,0,0-0.1-0.1-0.1L72,33V23c0-0.1,0-0.1,0-0.2c0-0.1,0-0.2-0.1-0.3
	c0-0.1-0.1-0.2-0.2-0.3c0,0,0-0.1-0.1-0.1l-8-8.3c-0.2-0.2-0.6-0.4-0.9-0.4H54H29.3c-0.3,0-0.7,0.1-0.9,0.4l-8,8.3
	c0,0-0.1,0.1-0.1,0.1c-0.1,0.1-0.1,0.2-0.2,0.3c0,0.1,0,0.2-0.1,0.3c0,0.1,0,0.1,0,0.2V33L12.3,41c0,0-0.1,0.1-0.1,0.1
	c-0.1,0.1-0.1,0.2-0.2,0.3c0,0.1,0,0.2-0.1,0.3c0,0.1,0,0.1,0,0.2v12.1l-7.7,7.9c0,0-0.1,0.1-0.1,0.1C4.1,62.1,4,62.2,4,62.3
	c0,0.1,0,0.2-0.1,0.3c0,0.1,0,0.1,0,0.2v14.6c0,0.7,0.6,1.2,1.2,1.2H46h40.9c0.7,0,1.2-0.6,1.2-1.2V62.7
	C88.1,62.7,88.1,62.6,88.1,62.6z M46,76.1H6.4V64H46h39.6v12.1H46z M46,24.2h23.5v8.1H46H22.5v-8.1H46z M46,43.1h31.6v10.1H46H14.4
	V43.1H46z"/>
</svg>
