<?xml version="1.0" encoding="utf-8"?>
<!-- Generator: Adobe Illustrator 25.2.1, SVG Export Plug-In . SVG Version: 6.00 Build 0)  -->
<svg version="1.1" id="Layer_1" xmlns="http://www.w3.org/2000/svg" xmlns:xlink="http://www.w3.org/1999/xlink" x="0px" y="0px"
	 viewBox="0 0 92 92" style="enable-background:new 0 0 92 92;" xml:space="preserve">
<style type="text/css">
	.st0{fill:#FFFFFF;}
</style>
<path class="st0" d="M88,76.2L57.3,14.5c-0.2-0.5-0.7-0.8-1.3-0.8c-0.6,0.1-1.1,0.3-1.3,0.8l-17,30l-6-12.3
	c-0.2-0.5-0.7-0.8-1.3-0.8c-0.5,0-1.1,0.3-1.3,0.7L4,76.1c-0.3,0.5-0.3,1,0,1.5c0.3,0.5,0.8,0.7,1.3,0.7h46.5h34.9
	c0.5,0,1-0.3,1.3-0.7C88.2,77.2,88.3,76.6,88,76.2z M7.9,75.4L17.2,59l3.5,3.5c0.6,0.6,1.5,0.6,2.1,0l5.7-5.7l11.1,11.2
	c0.3,0.3,0.7,0.4,1,0.4s0.8-0.2,1-0.4l2.8-2.8l4.9,10.1H7.9z M52.7,75.4l-6.3-13.1c0-0.2-0.1-0.3-0.2-0.5l-7-14.4
	c0.3-0.1,0.5-0.3,0.7-0.6l1.5-2.6l3.7,3.7c0.6,0.6,1.5,0.6,2.1,0l5.6-5.6l9.7,13.4c0.3,0.4,0.7,0.6,1.1,0.6c0,0,0.1,0,0.1,0
	c0.4,0,0.8-0.2,1.1-0.5l6.4-7.1l13.3,26.7H52.7z"/>
</svg>
