<?xml version="1.0" encoding="utf-8"?>
<!-- Generator: Adobe Illustrator 25.2.1, SVG Export Plug-In . SVG Version: 6.00 Build 0)  -->
<svg version="1.1" id="Layer_1" xmlns="http://www.w3.org/2000/svg" xmlns:xlink="http://www.w3.org/1999/xlink" x="0px" y="0px"
	 viewBox="0 0 92 92" style="enable-background:new 0 0 92 92;" xml:space="preserve">
<style type="text/css">
	.st0{fill:none;stroke:#FFFFFF;stroke-width:2;stroke-linecap:round;stroke-linejoin:round;stroke-miterlimit:10;}
	.st1{fill:#FFFFFF;stroke:#FFFFFF;stroke-width:2;stroke-linecap:round;stroke-linejoin:round;stroke-miterlimit:10;}
</style>
<path class="st0" d="M68.6,62.9l8.1-1.5c1,0,1.6-1,1.1-1.9c-0.6-1.2-1.2-2.3-1.1-2.6c0.1-0.5,1-0.7,3-1.9c2-1.2,1.8-2.8,1-4.1
	c-0.8-1.3-6.2-8.3-6.4-10.5c-0.1-1.4,1.6-4.9,0.4-10.4c-1.2-5.5-7.6-23.2-31.2-22.7C20,7.9,9.9,24,9.9,35.4s5.8,17,7.6,22.5
	c2.5,7.3,3.8,15.8-0.8,25.4"/>
<path class="st0" d="M53.7,83.7c1.1-4.4,3.1-8.2,4.9-9"/>
<path class="st0" d="M50.3,66.5c1.6,4.4,2.8,6.7,4.3,7.2c2.3,0.7,11.2,3.6,14.5,2.3c3.4-1.3,2.7-3.8,2.8-4.7
	c0.1-2.3,2.4-2.6,2.1-5.6"/>
<path class="st1" d="M39.7,52v-1.9c0-1.7-1.5-3.2-2.7-4.4c-1.8-1.8-2.9-4-2.9-6.8c0-5.1,4.2-9.3,9.3-9.3s9.3,4.2,9.3,9.3
	c0,2.7-1.1,5-2.9,6.8c-1.2,1.2-2.7,2.7-2.7,4.4V52H39.7z"/>
<line class="st0" x1="43.5" y1="24.1" x2="43.5" y2="14.8"/>
<line class="st0" x1="31.6" y1="27.1" x2="26.3" y2="21.9"/>
<line class="st0" x1="28.6" y1="39" x2="19.3" y2="39"/>
<line class="st0" x1="31.6" y1="50.9" x2="26.3" y2="56.1"/>
<line class="st0" x1="55.3" y1="50.9" x2="60.6" y2="56.1"/>
<line class="st0" x1="58.4" y1="39" x2="67.7" y2="39"/>
<line class="st0" x1="55.3" y1="27.1" x2="60.6" y2="21.9"/>
<polyline class="st0" points="39.7,52 39.7,57.6 41.6,59.5 45.3,59.5 47.2,57.6 47.2,52 "/>
</svg>
