<?xml version="1.0" encoding="utf-8"?>
<!-- Generator: Adobe Illustrator 24.0.3, SVG Export Plug-In . SVG Version: 6.00 Build 0)  -->
<svg version="1.2" baseProfile="tiny" id="Layer_1" xmlns="http://www.w3.org/2000/svg" xmlns:xlink="http://www.w3.org/1999/xlink"
	 x="0px" y="0px" viewBox="0 0 553 380.2" xml:space="preserve">
<g>
	<path fill="#FFFFFF" d="M53.9,58.8c0.5-8.7,1-16.7,1.5-24.7c0.4-6.8,0.7-13.6,1.1-20.4C56.9,5,61.2,0.2,70.2,0.1
		c11-0.2,22,0,32.9,0.9c32,2.8,63,10.1,92.8,22.3c29,11.9,54,30,76.9,51.1c1.1,1,2.2,2,3.5,3.2c5.6-4.9,11-9.6,16.5-14.4
		c37.3-32.2,81-50.6,129.3-58.3c18.8-3,38-4,57.1-4.9c13.4-0.6,17.1,3.8,17.7,17.1c0.6,13.8,1.5,27.5,2.2,41.7
		c10.2-2.6,19.8-5.1,29.5-7.5c7.1-1.8,10,0.4,10.4,7.6c3.5,66.2,7.1,132.3,10.6,198.5c1.2,21.6,2.3,43.2,3.3,64.8
		c0.4,8.2-2.3,11-10.5,12c-49,6.2-98,12.5-147,18.8c-27.2,3.5-54.4,6.9-81.7,10.3c-3,0.4-4.9,1.3-6.7,4.1c-1.8,2.8-4.8,5.1-7.8,6.7
		c-14.8,7.9-29.9,8.2-44.8,0.2c-2.9-1.5-6.2-3.6-7.5-6.3c-2-4.2-5-4.5-8.7-4.9c-69.5-8.8-138.9-17.7-208.4-26.6
		c-6.6-0.8-13.2-1.6-19.8-2.4c-7.7-1-10.3-4.4-9.9-12.1c1.9-33.9,3.7-67.8,5.5-101.7c2.6-47.9,5.1-95.7,7.7-143.6
		c0.3-6.3,0.5-12.6,1-18.9c0.5-6.1,3.5-8.2,9.5-6.7C33.6,53.5,43.3,56.1,53.9,58.8z M263.9,332.5c0.1-2.4,0.3-3.7,0.3-5
		c0-73.9,0-147.8,0.1-221.7c0-3.7-1.1-6.2-3.7-8.7c-18.7-18.2-39.3-34-62.8-45.5c-28-13.8-58-21.1-88.9-24.9
		c-9.2-1.1-18.4-1.5-28.2-2.3c-4.4,81.2-8.7,161.4-13.1,242c35.9,0.2,70.3,4.9,104.1,14.6C206.2,290.9,235.9,309,263.9,332.5z
		 M472.3,24.9c-2.8,0-5.2-0.2-7.4,0c-15.2,1.8-30.5,3.1-45.5,5.8c-49.1,8.7-91.3,31-126.7,66.1c-2.7,2.6-3.8,5.3-3.8,9.2
		c0.1,73.6,0.1,147.1,0.1,220.7c0,1.6,0.2,3.1,0.3,6c56.2-50.7,123.7-65.1,196-66.6C481,185.6,476.7,105.4,472.3,24.9z M53.6,64.2
		c-4.7,0.9-8.7,1.8-12.7,2.4c-3,0.4-4.1,1.8-4.3,4.9c-2.3,42.5-4.7,85.1-7.1,127.6c-1.9,32.7-3.8,65.5-5.7,98.2
		c-0.5,7.9-0.8,15.9-1.2,23.8c15.4-2.6,30.2-5.5,45.2-7.4c15-1.9,30.1-3.5,45.2-3.9c15.1-0.4,30.3,0.1,45.3,1.9
		c14.7,1.7,29.2,5.5,43.8,8.4c-6.2-3.1-12.4-6.2-18.9-8.7c-40.4-15.3-82.4-20.9-125.3-19.8c-11.6,0.3-16.1-4.2-15.5-15.9
		c1.4-27.1,2.8-54.2,4.3-81.3c1.8-33.9,3.8-67.8,5.6-101.7C52.7,83.5,53.1,74.2,53.6,64.2z M530.5,319.6c-1-17.7-1.8-34.7-2.8-51.8
		c-2.5-44.9-5.1-89.7-7.7-134.6c-1.2-21.1-2.5-42.2-3.8-63.3c-0.1-1.5-0.8-3.9-1.6-4.1c-4.9-1.2-9.9-1.9-15.3-2.9
		c0.9,16.8,1.7,32.5,2.6,48.3c1.5,28.1,3.1,56.2,4.6,84.3c1.5,27.4,3,54.8,4.3,82.3c0.4,8.8-4.7,13.6-13.3,13.9
		c-16.8,0.4-33.6,0.4-50.3,1.9c-28.5,2.5-56.1,8.9-82.6,19.8c-1.6,0.7-3.2,1.5-4.8,2.2C417.1,300.7,473.6,308.7,530.5,319.6z"/>
	<path fill="#FFFFFF" d="M113.2,57.9c47.1,5,92.6,20,129.1,56.1c0.9,0.9,2,1.8,2.7,2.9c2.1,3.1,2.2,6.4-0.6,9.1
		c-2.8,2.7-6.1,2.7-9.1,0.4c-2.3-1.8-4.3-4.2-6.5-6.2c-27.2-25.3-60.1-38.7-96.1-45.5c-7.7-1.5-15.5-2.2-23.2-3.1
		c-5-0.6-8-3.3-7.8-7.3C101.9,60,105.3,57.5,113.2,57.9z"/>
	<path fill="#FFFFFF" d="M108.5,106.8c48.3,4.3,91.9,20.4,129.4,51.9c1.3,1.1,2.5,2.2,3.7,3.4c4.2,4,4.8,8,1.6,11.2
		c-3.1,3.1-6.5,2.5-11-1c-8.5-6.7-16.7-13.9-25.8-19.5c-30.2-18.6-63-29.7-98.6-32.1c-5.2-0.3-7.8-2.9-7.6-7.2
		C100.3,109.1,103.4,106.7,108.5,106.8z"/>
	<path fill="#FFFFFF" d="M106.5,155.8c49.6,3.8,94.2,20.3,132.4,52.8c0.9,0.8,1.8,1.5,2.6,2.4c2.9,3.2,3.2,7.2,0.4,9.8
		c-3.1,3-6.5,2.9-9.9,0.2c-4.9-4-9.5-8.4-14.7-12c-33.4-23.2-70.2-36.8-110.9-39.4c-2.7-0.2-6.3-1.9-7.6-4.1
		C96.1,160.8,100.3,155.8,106.5,155.8z"/>
	<path fill="#FFFFFF" d="M106.3,210.6c48.5,2.8,93.2,16.8,131.7,47.8c0.6,0.5,1.3,1,1.9,1.6c3.7,3.4,4.2,7.4,1.4,10.5
		c-2.5,2.9-6.7,3-10.3,0c-36.9-30.3-79.9-44-127-46.2c-5.5-0.3-8.5-2.8-8.5-7c0-4.4,3.3-6.9,9.1-6.7
		C105.1,210.6,105.6,210.6,106.3,210.6z"/>
	<path fill="#FFFFFF" d="M450.7,66.8c0,3.9-2.8,6.1-7.6,6.9c-16.7,2.8-33.6,4.7-49.9,9.1c-28.6,7.8-54.4,21.3-75.5,42.7
		c-3.6,3.6-7.5,3.8-10.5,0.9c-3-2.9-2.6-7.2,1-10.9c20-20.4,44.4-33.5,71-43c20.4-7.2,41.4-10.8,62.8-12.6
		C447.1,59.6,450.7,62.5,450.7,66.8z"/>
	<path fill="#FFFFFF" d="M443.4,109.7c0,0,0.9,0,1.7,0c4.6,0.1,7.7,2.6,7.8,6.6c0.2,4-2.6,6.7-7.2,7.2c-9.4,1-18.9,1.3-28.2,3.2
		c-36.5,7.2-69.8,21.1-98.1,45.9c-4.1,3.6-8.1,3.8-11,0.6c-2.8-3.1-2.2-7.4,1.8-10.9c23.4-21.1,51.2-34.2,81-43.5
		C408,113.5,425.1,110.7,443.4,109.7z"/>
	<path fill="#FFFFFF" d="M440.2,160.5c3,0,6-0.1,9,0c3.9,0.1,6.2,2.4,6.6,6.2c0.4,3.8-1.7,6.4-5.5,7.2c-1.8,0.4-3.6,0.3-5.4,0.3
		c-46.3,1.5-87.9,15.9-124.4,44.6c-4.3,3.4-8.2,3.5-11,0.2c-2.7-3.2-1.9-7.5,2.1-10.8c26.1-21.9,56.6-34.5,89.2-42.3
		c12.9-3.1,26.1-4.3,39.2-6.4C440.1,159.8,440.1,160.1,440.2,160.5z"/>
	<path fill="#FFFFFF" d="M458.2,220.2c0.1,4.4-2.9,6.6-8.4,7.2c-15.5,1.6-31.3,2.2-46.5,5.4c-29.8,6.3-57.3,18-81.2,37.4
		c-4.1,3.3-8.4,3.2-11-0.1c-2.7-3.4-1.9-7.2,2.4-10.7c23.6-19.4,51-31,80.2-38.7c18.4-4.9,37.3-6.8,56.3-7.1
		C455.3,213.5,458.1,215.9,458.2,220.2z"/>
</g>
<g>
</g>
<g>
</g>
<g>
</g>
<g>
</g>
<g>
</g>
<g>
</g>
</svg>
