<?xml version="1.0" encoding="utf-8"?>
<!-- Generator: Adobe Illustrator 24.0.3, SVG Export Plug-In . SVG Version: 6.00 Build 0)  -->
<svg version="1.2" baseProfile="tiny" id="Layer_1" xmlns="http://www.w3.org/2000/svg" xmlns:xlink="http://www.w3.org/1999/xlink"
	 x="0px" y="0px" viewBox="0 0 553 380.2" xml:space="preserve">
<g id="_x37_8XuZD.tif">
	<g>
		<path fill="#FFFFFF" d="M378.5,218.1c24.5-43.3,58.2-75.1,103.8-93.7c17.3-7.1,44.1-13.5,51.6-12.1c0,1.2,0,2.4,0,3.6
			c0,32.8,0,65.6,0,98.4c0,4.2-0.3,4.5-4.6,4.4c-5.4-0.2-10.8-0.4-16.2-0.3c-17.8,0.4-34.8,4.9-51.2,11.7
			c-22.8,9.3-43.1,22.7-61.8,38.6c-12.2,10.3-23.8,21.2-35.9,31.5c-25.8,21.8-53.7,40.2-84.5,54.3c-16,7.4-32.5,13-49.9,15.8
			c-15.4,2.5-30.8,3-46.3,1.5c-35.3-3.4-66.7-16.4-94.4-38.3c-27.9-22.1-47.3-50.4-58.5-84.2c-7.2-21.7-9.9-44-8.5-66.8
			c1.9-30.8,11-59.3,27.8-85.2c27.1-41.7,65.2-68,113.6-78.8c30.6-6.8,61.2-5.3,91.2,4.4c41.9,13.5,74.8,38.9,98.2,76.1
			c13.2,21,21.6,43.9,25.2,68.6c2.3,16,2.6,31.9,0.5,47.9C378.5,216,378.5,216.7,378.5,218.1z M200.9,29.4
			C111.5,29.2,37,101.1,36.6,193c-0.3,91.2,73.3,164.5,164.5,164.4C292,357.5,365,284,365,192.7C365,102.7,291.2,29.4,200.9,29.4z
			 M518.2,129.9c-0.4-0.1-0.6-0.2-0.8-0.1c-21.3,4.8-41.1,13.2-59.6,24.9c-1.4,0.9-1.5,2-1.2,3.4c2.1,13.7,4.2,27.3,6.3,41
			c0.6,3.9,1.2,7.9,1.8,11.5c9.1-2,17.7-4.3,26.6-5.7c8.8-1.4,17.8-1.9,26.9-2.8C518.2,178.2,518.2,154,518.2,129.9z M410.8,238.7
			c1.1-0.7,2-1.2,2.8-1.8c10.3-7.3,21.2-13.5,32.8-18.6c2.2-1,2.6-2.1,2.3-4.3c-2-12.6-3.9-25.2-5.9-37.8c-0.5-3.1-1-6.1-1.5-9.2
			c-0.5,0.1-0.7,0.1-0.8,0.2c-14.4,11.5-26.5,25.1-37,40.2c-0.4,0.6-0.7,1.6-0.5,2.2C405.5,219.2,408.1,228.7,410.8,238.7z
			 M391.1,228.7c-10.5,18.9-20.8,37.5-31.3,56.4c1.2-1.1,2.3-2.1,3.3-3.1c9.3-9.1,18.2-18.5,27.9-27c4.6-4,6.1-7.4,3.8-13
			C393.1,237.8,392.3,233.2,391.1,228.7z"/>
		<path fill="#FFFFFF" d="M200.7,349.1c-86.2-0.1-155.6-69.7-155.5-156c0.1-85.9,69.9-155.4,156-155.2
			C286.8,38,356.5,107.6,356.4,193C356.3,279.7,287,349.1,200.7,349.1z M105.1,273c0,25.4,20.4,45.9,45.7,46.1
			c24.4,0.2,45.7-19,46.3-44.7c0.6-26.7-20.1-47.4-46-47.4C125.5,226.9,105.1,247.4,105.1,273z M109.9,129
			c-25.5,0-46.2,20.4-46.3,45.7c-0.1,25.3,20.7,46.2,46.1,46.3c25.2,0,45.9-20.6,45.9-45.8C155.7,149.5,135.4,129,109.9,129z
			 M259.7,217.6c-25.4-0.2-46.4,20.7-46.3,46.6c0.2,25.2,20.9,45.6,46.5,45.6c25.3,0,45.6-20.9,45.5-46.8
			C305.4,238.2,284.5,217.6,259.7,217.6z M191.6,149.2c25.6-0.1,46.2-20.7,46.1-46.2c0-25.3-20.8-45.9-46.2-45.9
			c-25.4,0-46.2,20.7-46.1,46C145.4,128.6,166.1,149.2,191.6,149.2z M284.3,203.9c23.3,0.2,45.8-18.3,45.9-46.1
			c0.1-25.2-21-46.2-46.2-45.9c-26.7,0.3-46,22.2-45.8,46.2C238.4,183.7,258.7,203.9,284.3,203.9z"/>
		<path fill="#FFFFFF" d="M185.9,283.9c-24.9-4.6-44.9-16.9-59.7-37.6c9.8-10.5,28.5-14.1,43.6-5.1C186,251,190.9,269.9,185.9,283.9
			z"/>
		<path fill="#FFFFFF" d="M111.1,211.6c-4.6-25.3,0.1-48.4,14.1-69.7c11.2,4.1,23.2,18.9,21.1,37.4
			C144.1,197.3,129.9,210.4,111.1,211.6z"/>
		<path fill="#FFFFFF" d="M227.3,281.3c-8.4-15.7-4.9-33.7,7.8-45c15.3-13.6,36-11,47.2-1.2C270.4,258.1,251.9,273.2,227.3,281.3z"
			/>
		<path fill="#FFFFFF" d="M156.2,113.6c20.2-12.1,49.1-15.3,71.7-7.6c1.1,13.7-13.1,30.1-28.9,33.2
			C180.1,143,162.2,132.3,156.2,113.6z"/>
		<path fill="#FFFFFF" d="M292.6,193.6c-23.3,5.3-44.9-11.8-45.1-35.1c-0.1-12.3,4.9-22,14.3-29.7c1.6-1.3,2.6-1.4,4.2,0.2
			c13.5,14.1,21.9,30.8,25.1,50C292,183.8,292.2,188.6,292.6,193.6z"/>
	</g>
</g>
<g>
</g>
<g>
</g>
<g>
</g>
<g>
</g>
<g>
</g>
<g>
</g>
</svg>
