<?xml version="1.0" encoding="utf-8"?>
<!-- Generator: Adobe Illustrator 24.3.0, SVG Export Plug-In . SVG Version: 6.00 Build 0)  -->
<svg version="1.1" id="Layer_1" xmlns="http://www.w3.org/2000/svg" xmlns:xlink="http://www.w3.org/1999/xlink" x="0px" y="0px"
	 viewBox="0 0 100 100" style="enable-background:new 0 0 100 100;" xml:space="preserve">
<g>
	<path d="M82.01,87.83c-1.55,0-3.05-0.64-4.09-1.73l-15.6-15.55c-5.32,3.68-11.69,5.64-18.14,5.64c-17.69,0-32.01-14.32-32.01-32.01
		s14.32-32.01,32.01-32.01s32.01,14.32,32.01,32.01c0,6.46-1.96,12.82-5.64,18.14l15.6,15.6c1.05,1.05,1.68,2.55,1.68,4.09
		C87.83,85.24,85.24,87.83,82.01,87.83z M44.18,23.81c-11.23,0-20.37,9.14-20.37,20.37s9.14,20.37,20.37,20.37
		s20.37-9.14,20.37-20.37S55.41,23.81,44.18,23.81z M58.73,45.64c0,0.77-0.68,1.46-1.46,1.46H47.09v10.19
		c0,0.77-0.68,1.46-1.46,1.46h-2.9c-0.77,0-1.46-0.68-1.46-1.46v-10.2H31.08c-0.77,0-1.46-0.68-1.46-1.46v-2.91
		c0-0.77,0.68-1.46,1.46-1.46h10.19V31.09c0-0.77,0.68-1.46,1.46-1.46h2.91c0.77,0,1.46,0.68,1.46,1.46v10.19h10.19
		c0.77,0,1.46,0.68,1.46,1.46v2.9H58.73z"/>
</g>
</svg>
